<?xml version="1.0" encoding="utf-8" standalone="no"?>
<!DOCTYPE svg PUBLIC "-//W3C//DTD SVG 1.1//EN"
  "http://www.w3.org/Graphics/SVG/1.1/DTD/svg11.dtd">
<!-- Created with matplotlib (https://matplotlib.org/) -->
<svg height="291.6pt" version="1.1" viewBox="0 0 777.744 291.6" width="777.744pt" xmlns="http://www.w3.org/2000/svg" xmlns:xlink="http://www.w3.org/1999/xlink">
 <metadata>
  <rdf:RDF xmlns:cc="http://creativecommons.org/ns#" xmlns:dc="http://purl.org/dc/elements/1.1/" xmlns:rdf="http://www.w3.org/1999/02/22-rdf-syntax-ns#">
   <cc:Work>
    <dc:type rdf:resource="http://purl.org/dc/dcmitype/StillImage"/>
    <dc:date>2022-04-30T21:16:26.666255</dc:date>
    <dc:format>image/svg+xml</dc:format>
    <dc:creator>
     <cc:Agent>
      <dc:title>Matplotlib v3.3.4, https://matplotlib.org/</dc:title>
     </cc:Agent>
    </dc:creator>
   </cc:Work>
  </rdf:RDF>
 </metadata>
 <defs>
  <style type="text/css">*{stroke-linecap:butt;stroke-linejoin:round;}</style>
 </defs>
 <g id="figure_1">
  <g id="patch_1">
   <path d="M 0 291.6 
L 777.744 291.6 
L 777.744 0 
L 0 0 
z
" style="fill:#ffffff;"/>
  </g>
  <g id="axes_1">
   <g id="PolyCollection_1">
    <path clip-path="url(#p8301c66d38)" d="M -515.397046 262.479877 
L -503.729058 262.479877 
L -492.061071 262.479877 
L -480.393083 262.479877 
L -468.725095 262.479877 
L -457.057108 262.479877 
L -445.38912 262.479877 
L -433.721132 262.479877 
L -422.053145 262.479877 
L -410.385157 262.479877 
L -398.717169 262.479877 
L -387.049182 262.479877 
L -375.381194 262.479877 
L -363.713206 262.479877 
L -352.045218 262.479877 
L -340.377231 262.479877 
L -328.709243 262.479877 
L -317.041255 262.479877 
L -305.373268 262.479877 
L -293.70528 262.479877 
L -282.037292 262.479877 
L -270.369305 262.479877 
L -258.701317 262.479877 
L -247.033329 262.479877 
L -235.365342 262.479877 
L -223.697354 262.479877 
L -212.029366 262.479877 
L -200.361378 262.479877 
L -188.693391 262.479877 
L -177.025403 262.479877 
L -165.357415 262.479877 
L -153.689428 262.479877 
L -142.02144 262.479877 
L -130.353452 262.479877 
L -118.685465 262.479877 
L -107.017477 262.479877 
L -95.349489 262.479877 
L -83.681502 262.479877 
L -72.013514 262.479877 
L -60.345526 262.479877 
L -48.677538 262.479877 
L -37.009551 262.479877 
L -25.341563 262.479877 
L -13.673575 262.479877 
L -2.005588 262.479877 
L 9.6624 262.479877 
L 21.330388 262.479877 
L 32.998375 262.479877 
L 44.666363 262.479877 
L 56.334351 262.479877 
L 68.002338 262.479877 
L 79.670326 262.479877 
L 91.338314 262.479877 
L 103.006302 262.479877 
L 114.674289 262.479877 
L 126.342277 262.479877 
L 138.010265 262.479877 
L 149.678252 262.479877 
L 161.34624 262.479877 
L 173.014228 262.479877 
L 184.682215 262.479877 
L 196.350203 262.479877 
L 208.018191 262.479877 
L 219.686178 262.479877 
L 231.354166 262.479877 
L 243.022154 262.479877 
L 254.690142 262.479877 
L 266.358129 262.479877 
L 278.026117 262.479877 
L 289.694105 262.479877 
L 301.362092 262.479877 
L 313.03008 262.479877 
L 324.698068 262.479877 
L 336.366055 262.479877 
L 348.034043 262.479877 
L 359.702031 262.479877 
L 371.370018 262.479877 
L 383.038006 262.479877 
L 394.705994 262.479877 
L 406.373982 262.479877 
L 418.041969 262.479877 
L 429.709957 262.479877 
L 441.377945 262.479877 
L 453.045932 262.479877 
L 464.71392 262.479877 
L 476.381908 262.479877 
L 488.049895 262.479877 
L 499.717883 262.479877 
L 511.385871 262.479877 
L 523.053858 262.479877 
L 534.721846 262.479877 
L 546.389834 262.479877 
L 558.057822 262.479877 
L 569.725809 262.479877 
L 581.393797 262.479877 
L 593.061785 262.479877 
L 604.729772 262.479877 
L 616.39776 262.479877 
L 628.065748 262.479877 
L 639.733735 262.479877 
L 651.401723 262.479877 
L 663.069711 262.479877 
L 674.737698 262.479877 
L 686.405686 262.479877 
L 698.073674 262.479877 
L 709.741662 262.479877 
L 721.409649 262.479877 
L 733.077637 262.479877 
L 744.745625 262.479877 
L 756.413612 262.479877 
L 768.0816 262.479877 
L 779.749588 262.479877 
L 791.417575 262.479877 
L 803.085563 262.479877 
L 814.753551 262.479877 
L 826.421538 262.479877 
L 838.089526 262.479877 
L 849.757514 262.479877 
L 861.425502 262.479877 
L 873.093489 262.479877 
L 884.761477 262.479877 
L 896.429465 262.479877 
L 908.097452 262.479877 
L 919.76544 262.479877 
L 931.433428 262.479877 
L 943.101415 262.479877 
L 954.769403 262.479877 
L 966.437391 262.479877 
L 978.105378 262.479877 
L 989.773366 262.479877 
L 1001.441354 262.479877 
L 1013.109342 262.479877 
L 1024.777329 262.479877 
L 1036.445317 262.479877 
L 1048.113305 262.479877 
L 1059.781292 262.479877 
L 1071.44928 262.479877 
L 1083.117268 262.479877 
L 1094.785255 262.479877 
L 1106.453243 262.479877 
L 1118.121231 262.479877 
L 1129.789218 262.479877 
L 1141.457206 262.479877 
L 1153.125194 262.479877 
L 1164.793182 262.479877 
L 1176.461169 262.479877 
L 1188.129157 262.479877 
L 1199.797145 262.479877 
L 1211.465132 262.479877 
L 1223.13312 262.479877 
L 1234.801108 262.479877 
L 1246.469095 262.479877 
L 1258.137083 262.479877 
L 1269.805071 262.479877 
L 1281.473058 262.479877 
L 1293.141046 262.479877 
L 1304.809034 262.479877 
L 1316.477022 262.479877 
L 1328.145009 262.479877 
L 1339.812997 262.479877 
L 1351.480985 262.479877 
L 1363.148972 262.479877 
L 1374.81696 262.479877 
L 1386.484948 262.479877 
L 1398.152935 262.479877 
L 1409.820923 262.479877 
L 1421.488911 262.479877 
L 1433.156898 262.479877 
L 1444.824886 262.479877 
L 1456.492874 262.479877 
L 1468.160862 262.479877 
L 1479.828849 262.479877 
L 1491.496837 262.479877 
L 1503.164825 262.479877 
L 1514.832812 262.479877 
L 1526.5008 262.479877 
L 1538.168788 262.479877 
L 1549.836775 262.479877 
L 1561.504763 262.479877 
L 1573.172751 262.479877 
L 1584.840738 262.479877 
L 1596.508726 262.479877 
L 1608.176714 262.479877 
L 1619.844702 262.479877 
L 1631.512689 262.479877 
L 1643.180677 262.479877 
L 1654.848665 262.479877 
L 1666.516652 262.479877 
L 1678.18464 262.479877 
L 1689.852628 262.479877 
L 1701.520615 262.479877 
L 1713.188603 262.479877 
L 1724.856591 262.479877 
L 1736.524578 262.479877 
L 1748.192566 262.479877 
L 1759.860554 262.479877 
L 1771.528542 262.479877 
L 1783.196529 262.479877 
L 1794.864517 262.479877 
L 1806.532505 262.479877 
L 1818.200492 262.479877 
L 1829.86848 262.479877 
L 1841.536468 262.479877 
L 1853.204455 262.479877 
L 1864.872443 262.479877 
L 1876.540431 262.479877 
L 1888.208418 262.479877 
L 1899.876406 262.479877 
L 1911.544394 262.479877 
L 1923.212382 262.479877 
L 1923.212382 145.8 
L 1911.544394 145.8 
L 1899.876406 145.8 
L 1888.208418 145.8 
L 1876.540431 145.8 
L 1864.872443 145.8 
L 1853.204455 145.8 
L 1841.536468 145.8 
L 1829.86848 145.8 
L 1818.200492 145.8 
L 1806.532505 145.8 
L 1794.864517 145.8 
L 1783.196529 145.8 
L 1771.528542 145.8 
L 1759.860554 145.8 
L 1748.192566 145.8 
L 1736.524578 145.8 
L 1724.856591 145.8 
L 1713.188603 145.8 
L 1701.520615 145.8 
L 1689.852628 145.8 
L 1678.18464 145.8 
L 1666.516652 145.8 
L 1654.848665 145.8 
L 1643.180677 145.8 
L 1631.512689 145.8 
L 1619.844702 145.8 
L 1608.176714 145.8 
L 1596.508726 145.8 
L 1584.840738 145.8 
L 1573.172751 145.8 
L 1561.504763 145.8 
L 1549.836775 145.8 
L 1538.168788 145.8 
L 1526.5008 145.8 
L 1514.832812 145.8 
L 1503.164825 145.8 
L 1491.496837 145.8 
L 1479.828849 145.8 
L 1468.160862 145.8 
L 1456.492874 145.8 
L 1444.824886 145.8 
L 1433.156898 145.8 
L 1421.488911 145.8 
L 1409.820923 145.8 
L 1398.152935 145.8 
L 1386.484948 145.8 
L 1374.81696 145.8 
L 1363.148972 145.8 
L 1351.480985 145.8 
L 1339.812997 145.8 
L 1328.145009 145.8 
L 1316.477022 145.8 
L 1304.809034 145.8 
L 1293.141046 145.8 
L 1281.473058 145.8 
L 1269.805071 145.8 
L 1258.137083 145.8 
L 1246.469095 145.8 
L 1234.801108 145.8 
L 1223.13312 145.8 
L 1211.465132 145.8 
L 1199.797145 145.8 
L 1188.129157 145.8 
L 1176.461169 145.8 
L 1164.793182 145.8 
L 1153.125194 145.8 
L 1141.457206 145.8 
L 1129.789218 145.8 
L 1118.121231 145.8 
L 1106.453243 145.8 
L 1094.785255 145.8 
L 1083.117268 145.8 
L 1071.44928 145.8 
L 1059.781292 145.8 
L 1048.113305 145.8 
L 1036.445317 145.8 
L 1024.777329 145.8 
L 1013.109342 145.8 
L 1001.441354 145.8 
L 989.773366 145.8 
L 978.105378 145.8 
L 966.437391 145.8 
L 954.769403 145.8 
L 943.101415 145.8 
L 931.433428 145.8 
L 919.76544 145.8 
L 908.097452 145.8 
L 896.429465 145.8 
L 884.761477 145.8 
L 873.093489 145.8 
L 861.425502 145.8 
L 849.757514 145.8 
L 838.089526 145.8 
L 826.421538 145.8 
L 814.753551 145.8 
L 803.085563 145.8 
L 791.417575 145.8 
L 779.749588 145.8 
L 768.0816 145.8 
L 756.413612 145.8 
L 744.745625 145.8 
L 733.077637 145.8 
L 721.409649 145.8 
L 709.741662 145.8 
L 698.073674 145.8 
L 686.405686 145.8 
L 674.737698 145.8 
L 663.069711 145.8 
L 651.401723 145.8 
L 639.733735 145.8 
L 628.065748 145.8 
L 616.39776 145.8 
L 604.729772 145.8 
L 593.061785 145.8 
L 581.393797 145.8 
L 569.725809 145.8 
L 558.057822 145.8 
L 546.389834 145.8 
L 534.721846 145.8 
L 523.053858 145.8 
L 511.385871 145.8 
L 499.717883 145.8 
L 488.049895 145.8 
L 476.381908 145.8 
L 464.71392 145.8 
L 453.045932 145.8 
L 441.377945 145.8 
L 429.709957 145.8 
L 418.041969 145.8 
L 406.373982 145.8 
L 394.705994 145.8 
L 383.038006 145.8 
L 371.370018 145.8 
L 359.702031 145.8 
L 348.034043 145.8 
L 336.366055 145.8 
L 324.698068 145.8 
L 313.03008 145.8 
L 301.362092 145.8 
L 289.694105 145.8 
L 278.026117 145.8 
L 266.358129 145.8 
L 254.690142 145.8 
L 243.022154 145.8 
L 231.354166 145.8 
L 219.686178 145.8 
L 208.018191 145.8 
L 196.350203 145.8 
L 184.682215 145.8 
L 173.014228 145.8 
L 161.34624 145.8 
L 149.678252 145.8 
L 138.010265 145.8 
L 126.342277 145.8 
L 114.674289 145.8 
L 103.006302 145.8 
L 91.338314 145.8 
L 79.670326 145.8 
L 68.002338 145.8 
L 56.334351 145.8 
L 44.666363 145.8 
L 32.998375 145.8 
L 21.330388 145.8 
L 9.6624 145.8 
L -2.005588 145.8 
L -13.673575 145.8 
L -25.341563 145.8 
L -37.009551 145.8 
L -48.677538 145.8 
L -60.345526 145.8 
L -72.013514 145.8 
L -83.681502 145.8 
L -95.349489 145.8 
L -107.017477 145.8 
L -118.685465 145.8 
L -130.353452 145.8 
L -142.02144 145.8 
L -153.689428 145.8 
L -165.357415 145.8 
L -177.025403 145.8 
L -188.693391 145.8 
L -200.361378 145.8 
L -212.029366 145.8 
L -223.697354 145.8 
L -235.365342 145.8 
L -247.033329 145.8 
L -258.701317 145.8 
L -270.369305 145.8 
L -282.037292 145.8 
L -293.70528 145.8 
L -305.373268 145.8 
L -317.041255 145.8 
L -328.709243 145.8 
L -340.377231 145.8 
L -352.045218 145.8 
L -363.713206 145.8 
L -375.381194 145.8 
L -387.049182 145.8 
L -398.717169 145.8 
L -410.385157 145.8 
L -422.053145 145.8 
L -433.721132 145.8 
L -445.38912 145.8 
L -457.057108 145.8 
L -468.725095 145.8 
L -480.393083 145.8 
L -492.061071 145.8 
L -503.729058 145.8 
L -515.397046 145.8 
z
" style="fill:#c7c7c7;"/>
    <path clip-path="url(#p8301c66d38)" d="M -515.397046 145.8 
L -503.729058 145.8 
L -492.061071 145.8 
L -480.393083 145.8 
L -468.725095 145.8 
L -457.057108 145.8 
L -445.38912 145.8 
L -433.721132 145.8 
L -422.053145 145.8 
L -410.385157 145.8 
L -398.717169 145.8 
L -387.049182 145.8 
L -375.381194 145.8 
L -363.713206 145.8 
L -352.045218 145.8 
L -340.377231 145.8 
L -328.709243 145.8 
L -317.041255 145.8 
L -305.373268 145.8 
L -293.70528 145.8 
L -282.037292 145.8 
L -270.369305 145.8 
L -258.701317 145.8 
L -247.033329 145.8 
L -235.365342 145.8 
L -223.697354 145.8 
L -212.029366 145.8 
L -200.361378 145.8 
L -188.693391 145.8 
L -177.025403 145.8 
L -165.357415 145.8 
L -153.689428 145.8 
L -142.02144 145.8 
L -130.353452 145.8 
L -118.685465 145.8 
L -107.017477 145.8 
L -95.349489 145.8 
L -83.681502 145.8 
L -72.013514 145.8 
L -60.345526 145.8 
L -48.677538 145.8 
L -37.009551 145.8 
L -25.341563 145.8 
L -13.673575 145.8 
L -2.005588 145.8 
L 9.6624 145.8 
L 21.330388 145.8 
L 32.998375 145.8 
L 44.666363 145.8 
L 56.334351 145.8 
L 68.002338 145.8 
L 79.670326 145.8 
L 91.338314 145.8 
L 103.006302 145.8 
L 114.674289 145.8 
L 126.342277 145.8 
L 138.010265 145.8 
L 149.678252 145.8 
L 161.34624 145.8 
L 173.014228 145.8 
L 184.682215 145.8 
L 196.350203 145.8 
L 208.018191 145.8 
L 219.686178 145.8 
L 231.354166 145.8 
L 243.022154 145.8 
L 254.690142 145.8 
L 266.358129 145.8 
L 278.026117 145.8 
L 289.694105 145.8 
L 301.362092 145.8 
L 313.03008 145.8 
L 324.698068 145.8 
L 336.366055 145.8 
L 348.034043 145.8 
L 359.702031 145.8 
L 371.370018 145.8 
L 383.038006 145.8 
L 394.705994 145.8 
L 406.373982 145.8 
L 418.041969 145.8 
L 429.709957 145.8 
L 441.377945 145.8 
L 453.045932 145.8 
L 464.71392 145.8 
L 476.381908 145.8 
L 488.049895 145.8 
L 499.717883 145.8 
L 511.385871 145.8 
L 523.053858 145.8 
L 534.721846 145.8 
L 546.389834 145.8 
L 558.057822 145.8 
L 569.725809 145.8 
L 581.393797 145.8 
L 593.061785 145.8 
L 604.729772 145.8 
L 616.39776 145.8 
L 628.065748 145.8 
L 639.733735 145.8 
L 651.401723 145.8 
L 663.069711 145.8 
L 674.737698 145.8 
L 686.405686 145.8 
L 698.073674 145.8 
L 709.741662 145.8 
L 721.409649 145.8 
L 733.077637 145.8 
L 744.745625 145.8 
L 756.413612 145.8 
L 768.0816 145.8 
L 779.749588 145.8 
L 791.417575 145.8 
L 803.085563 145.8 
L 814.753551 145.8 
L 826.421538 145.8 
L 838.089526 145.8 
L 849.757514 145.8 
L 861.425502 145.8 
L 873.093489 145.8 
L 884.761477 145.8 
L 896.429465 145.8 
L 908.097452 145.8 
L 919.76544 145.8 
L 931.433428 145.8 
L 943.101415 145.8 
L 954.769403 145.8 
L 966.437391 145.8 
L 978.105378 145.8 
L 989.773366 145.8 
L 1001.441354 145.8 
L 1013.109342 145.8 
L 1024.777329 145.8 
L 1036.445317 145.8 
L 1048.113305 145.8 
L 1059.781292 145.8 
L 1071.44928 145.8 
L 1083.117268 145.8 
L 1094.785255 145.8 
L 1106.453243 145.8 
L 1118.121231 145.8 
L 1129.789218 145.8 
L 1141.457206 145.8 
L 1153.125194 145.8 
L 1164.793182 145.8 
L 1176.461169 145.8 
L 1188.129157 145.8 
L 1199.797145 145.8 
L 1211.465132 145.8 
L 1223.13312 145.8 
L 1234.801108 145.8 
L 1246.469095 145.8 
L 1258.137083 145.8 
L 1269.805071 145.8 
L 1281.473058 145.8 
L 1293.141046 145.8 
L 1304.809034 145.8 
L 1316.477022 145.8 
L 1328.145009 145.8 
L 1339.812997 145.8 
L 1351.480985 145.8 
L 1363.148972 145.8 
L 1374.81696 145.8 
L 1386.484948 145.8 
L 1398.152935 145.8 
L 1409.820923 145.8 
L 1421.488911 145.8 
L 1433.156898 145.8 
L 1444.824886 145.8 
L 1456.492874 145.8 
L 1468.160862 145.8 
L 1479.828849 145.8 
L 1491.496837 145.8 
L 1503.164825 145.8 
L 1514.832812 145.8 
L 1526.5008 145.8 
L 1538.168788 145.8 
L 1549.836775 145.8 
L 1561.504763 145.8 
L 1573.172751 145.8 
L 1584.840738 145.8 
L 1596.508726 145.8 
L 1608.176714 145.8 
L 1619.844702 145.8 
L 1631.512689 145.8 
L 1643.180677 145.8 
L 1654.848665 145.8 
L 1666.516652 145.8 
L 1678.18464 145.8 
L 1689.852628 145.8 
L 1701.520615 145.8 
L 1713.188603 145.8 
L 1724.856591 145.8 
L 1736.524578 145.8 
L 1748.192566 145.8 
L 1759.860554 145.8 
L 1771.528542 145.8 
L 1783.196529 145.8 
L 1794.864517 145.8 
L 1806.532505 145.8 
L 1818.200492 145.8 
L 1829.86848 145.8 
L 1841.536468 145.8 
L 1853.204455 145.8 
L 1864.872443 145.8 
L 1876.540431 145.8 
L 1888.208418 145.8 
L 1899.876406 145.8 
L 1911.544394 145.8 
L 1923.212382 145.8 
L 1923.212382 29.120123 
L 1911.544394 29.120123 
L 1899.876406 29.120123 
L 1888.208418 29.120123 
L 1876.540431 29.120123 
L 1864.872443 29.120123 
L 1853.204455 29.120123 
L 1841.536468 29.120123 
L 1829.86848 29.120123 
L 1818.200492 29.120123 
L 1806.532505 29.120123 
L 1794.864517 29.120123 
L 1783.196529 29.120123 
L 1771.528542 29.120123 
L 1759.860554 29.120123 
L 1748.192566 29.120123 
L 1736.524578 29.120123 
L 1724.856591 29.120123 
L 1713.188603 29.120123 
L 1701.520615 29.120123 
L 1689.852628 29.120123 
L 1678.18464 29.120123 
L 1666.516652 29.120123 
L 1654.848665 29.120123 
L 1643.180677 29.120123 
L 1631.512689 29.120123 
L 1619.844702 29.120123 
L 1608.176714 29.120123 
L 1596.508726 29.120123 
L 1584.840738 29.120123 
L 1573.172751 29.120123 
L 1561.504763 29.120123 
L 1549.836775 29.120123 
L 1538.168788 29.120123 
L 1526.5008 29.120123 
L 1514.832812 29.120123 
L 1503.164825 29.120123 
L 1491.496837 29.120123 
L 1479.828849 29.120123 
L 1468.160862 29.120123 
L 1456.492874 29.120123 
L 1444.824886 29.120123 
L 1433.156898 29.120123 
L 1421.488911 29.120123 
L 1409.820923 29.120123 
L 1398.152935 29.120123 
L 1386.484948 29.120123 
L 1374.81696 29.120123 
L 1363.148972 29.120123 
L 1351.480985 29.120123 
L 1339.812997 29.120123 
L 1328.145009 29.120123 
L 1316.477022 29.120123 
L 1304.809034 29.120123 
L 1293.141046 29.120123 
L 1281.473058 29.120123 
L 1269.805071 29.120123 
L 1258.137083 29.120123 
L 1246.469095 29.120123 
L 1234.801108 29.120123 
L 1223.13312 29.120123 
L 1211.465132 29.120123 
L 1199.797145 29.120123 
L 1188.129157 29.120123 
L 1176.461169 29.120123 
L 1164.793182 29.120123 
L 1153.125194 29.120123 
L 1141.457206 29.120123 
L 1129.789218 29.120123 
L 1118.121231 29.120123 
L 1106.453243 29.120123 
L 1094.785255 29.120123 
L 1083.117268 29.120123 
L 1071.44928 29.120123 
L 1059.781292 29.120123 
L 1048.113305 29.120123 
L 1036.445317 29.120123 
L 1024.777329 29.120123 
L 1013.109342 29.120123 
L 1001.441354 29.120123 
L 989.773366 29.120123 
L 978.105378 29.120123 
L 966.437391 29.120123 
L 954.769403 29.120123 
L 943.101415 29.120123 
L 931.433428 29.120123 
L 919.76544 29.120123 
L 908.097452 29.120123 
L 896.429465 29.120123 
L 884.761477 29.120123 
L 873.093489 29.120123 
L 861.425502 29.120123 
L 849.757514 29.120123 
L 838.089526 29.120123 
L 826.421538 29.120123 
L 814.753551 29.120123 
L 803.085563 29.120123 
L 791.417575 29.120123 
L 779.749588 29.120123 
L 768.0816 29.120123 
L 756.413612 29.120123 
L 744.745625 29.120123 
L 733.077637 29.120123 
L 721.409649 29.120123 
L 709.741662 29.120123 
L 698.073674 29.120123 
L 686.405686 29.120123 
L 674.737698 29.120123 
L 663.069711 29.120123 
L 651.401723 29.120123 
L 639.733735 29.120123 
L 628.065748 29.120123 
L 616.39776 29.120123 
L 604.729772 29.120123 
L 593.061785 29.120123 
L 581.393797 29.120123 
L 569.725809 29.120123 
L 558.057822 29.120123 
L 546.389834 29.120123 
L 534.721846 29.120123 
L 523.053858 29.120123 
L 511.385871 29.120123 
L 499.717883 29.120123 
L 488.049895 29.120123 
L 476.381908 29.120123 
L 464.71392 29.120123 
L 453.045932 29.120123 
L 441.377945 29.120123 
L 429.709957 29.120123 
L 418.041969 29.120123 
L 406.373982 29.120123 
L 394.705994 29.120123 
L 383.038006 29.120123 
L 371.370018 29.120123 
L 359.702031 29.120123 
L 348.034043 29.120123 
L 336.366055 29.120123 
L 324.698068 29.120123 
L 313.03008 29.120123 
L 301.362092 29.120123 
L 289.694105 29.120123 
L 278.026117 29.120123 
L 266.358129 29.120123 
L 254.690142 29.120123 
L 243.022154 29.120123 
L 231.354166 29.120123 
L 219.686178 29.120123 
L 208.018191 29.120123 
L 196.350203 29.120123 
L 184.682215 29.120123 
L 173.014228 29.120123 
L 161.34624 29.120123 
L 149.678252 29.120123 
L 138.010265 29.120123 
L 126.342277 29.120123 
L 114.674289 29.120123 
L 103.006302 29.120123 
L 91.338314 29.120123 
L 79.670326 29.120123 
L 68.002338 29.120123 
L 56.334351 29.120123 
L 44.666363 29.120123 
L 32.998375 29.120123 
L 21.330388 29.120123 
L 9.6624 29.120123 
L -2.005588 29.120123 
L -13.673575 29.120123 
L -25.341563 29.120123 
L -37.009551 29.120123 
L -48.677538 29.120123 
L -60.345526 29.120123 
L -72.013514 29.120123 
L -83.681502 29.120123 
L -95.349489 29.120123 
L -107.017477 29.120123 
L -118.685465 29.120123 
L -130.353452 29.120123 
L -142.02144 29.120123 
L -153.689428 29.120123 
L -165.357415 29.120123 
L -177.025403 29.120123 
L -188.693391 29.120123 
L -200.361378 29.120123 
L -212.029366 29.120123 
L -223.697354 29.120123 
L -235.365342 29.120123 
L -247.033329 29.120123 
L -258.701317 29.120123 
L -270.369305 29.120123 
L -282.037292 29.120123 
L -293.70528 29.120123 
L -305.373268 29.120123 
L -317.041255 29.120123 
L -328.709243 29.120123 
L -340.377231 29.120123 
L -352.045218 29.120123 
L -363.713206 29.120123 
L -375.381194 29.120123 
L -387.049182 29.120123 
L -398.717169 29.120123 
L -410.385157 29.120123 
L -422.053145 29.120123 
L -433.721132 29.120123 
L -445.38912 29.120123 
L -457.057108 29.120123 
L -468.725095 29.120123 
L -480.393083 29.120123 
L -492.061071 29.120123 
L -503.729058 29.120123 
L -515.397046 29.120123 
z
" style="fill:#c7c7c7;"/>
   </g>
   <g id="PathCollection_1"/>
   <g id="PathCollection_2">
    <path clip-path="url(#p8301c66d38)" d="M -515.397046 212.890929 
L -497.895065 204.139938 
L -515.397046 195.388948 
z
" style="fill:#dddddd;stroke:#dddddd;stroke-width:0.5;"/>
    <path clip-path="url(#p8301c66d38)" d="M -515.397046 96.211052 
L -497.895065 87.460062 
L -515.397046 78.709071 
z
" style="fill:#dddddd;stroke:#dddddd;stroke-width:0.5;"/>
   </g>
   <g id="PathCollection_3">
    <path clip-path="url(#p8301c66d38)" d="M -1 262.479877 
L 778.744 262.479877 
L 778.744 262.479877 
" style="fill:none;stroke:#555555;stroke-width:0.5;"/>
    <path clip-path="url(#p8301c66d38)" d="M -1 145.8 
L 778.744 145.8 
L 778.744 145.8 
" style="fill:none;stroke:#555555;stroke-width:0.5;"/>
   </g>
   <g id="PathCollection_4">
    <path clip-path="url(#p8301c66d38)" d="M -1 145.8 
L 778.744 145.8 
L 778.744 145.8 
" style="fill:none;stroke:#555555;stroke-width:0.5;"/>
    <path clip-path="url(#p8301c66d38)" d="M -1 29.120123 
L 778.744 29.120123 
L 778.744 29.120123 
" style="fill:none;stroke:#555555;stroke-width:0.5;"/>
   </g>
   <g id="PatchCollection_1">
    <path clip-path="url(#p8301c66d38)" d="M 68.002338 156.690083 
C 71.096725 156.690083 74.06479 155.46067 76.252852 153.272608 
C 78.440913 151.084547 79.670326 148.116482 79.670326 145.022095 
C 79.670326 141.927709 78.440913 138.959644 76.252852 136.771582 
C 74.06479 134.58352 71.096725 133.354108 68.002338 133.354108 
C 64.907952 133.354108 61.939887 134.58352 59.751825 136.771582 
C 57.563764 138.959644 56.334351 141.927709 56.334351 145.022095 
C 56.334351 148.116482 57.563764 151.084547 59.751825 153.272608 
C 61.939887 155.46067 64.907952 156.690083 68.002338 156.690083 
z
" style="fill:#008000;stroke:#008000;"/>
    <path clip-path="url(#p8301c66d38)" d="M 162.494137 143.132007 
L 120.777795 157.970831 
L 120.59112 148.638308 
L 68.095676 149.688357 
L 67.909001 140.355834 
L 120.404445 139.305785 
L 120.217769 129.973261 
z
" style="fill:#008000;stroke:#008000;"/>
    <path clip-path="url(#p8301c66d38)" d="M 651.401723 166.802378 
L 651.401723 124.797622 
L 709.741662 124.797622 
L 709.741662 166.802378 
z
" style="fill:#f1b514;stroke:#302404;stroke-width:0.5;"/>
    <path clip-path="url(#p8301c66d38)" d="M 228.553849 134.132012 
L 228.553849 75.792074 
L 261.224215 75.792074 
L 261.224215 134.132012 
z
" style="fill:#d95558;stroke:#831d20;stroke-width:0.5;"/>
    <path clip-path="url(#p8301c66d38)" d="M 228.553849 262.479877 
L 228.553849 169.135975 
L 261.224215 169.135975 
L 261.224215 262.479877 
z
" style="fill:#d95558;stroke:#831d20;stroke-width:0.5;"/>
    <path clip-path="url(#p8301c66d38)" d="M 461.913603 87.460062 
L 461.913603 29.120123 
L 494.583968 29.120123 
L 494.583968 87.460062 
z
" style="fill:#d95558;stroke:#831d20;stroke-width:0.5;"/>
    <path clip-path="url(#p8301c66d38)" d="M 461.913603 174.969969 
L 461.913603 116.630031 
L 494.583968 116.630031 
L 494.583968 174.969969 
z
" style="fill:#d95558;stroke:#831d20;stroke-width:0.5;"/>
    <path clip-path="url(#p8301c66d38)" d="M 461.913603 262.479877 
L 461.913603 204.139938 
L 494.583968 204.139938 
L 494.583968 262.479877 
z
" style="fill:#d95558;stroke:#831d20;stroke-width:0.5;"/>
    <path clip-path="url(#p8301c66d38)" d="M 607.763449 104.655353 
L 607.763449 88.933551 
L 628.765827 88.933551 
L 628.765827 104.655353 
z
" style="fill:#d95558;stroke:#831d20;stroke-width:0.5;"/>
    <path clip-path="url(#p8301c66d38)" d="M 68.002338 150.856089 
C 69.549532 150.856089 71.033564 150.241383 72.127595 149.147352 
C 73.221626 148.053321 73.836332 146.569289 73.836332 145.022095 
C 73.836332 143.474902 73.221626 141.990869 72.127595 140.896839 
C 71.033564 139.802808 69.549532 139.188101 68.002338 139.188101 
C 66.455145 139.188101 64.971113 139.802808 63.877082 140.896839 
C 62.783051 141.990869 62.168345 143.474902 62.168345 145.022095 
C 62.168345 146.569289 62.783051 148.053321 63.877082 149.147352 
C 64.971113 150.241383 66.455145 150.856089 68.002338 150.856089 
z
" style="fill:#1d7eea;stroke:#00478f;stroke-width:0.5;"/>
   </g>
   <g id="line2d_1">
    <path clip-path="url(#p8301c66d38)" d="M 68.002338 145.022095 
" style="fill:none;stroke:#ffd700;stroke-linecap:square;stroke-width:2;"/>
   </g>
   <g id="line2d_2">
    <path clip-path="url(#p8301c66d38)" d="M 68.002338 145.022095 
L 78.503527 144.812071 
L 89.004716 144.602048 
L 99.505905 144.392024 
L 110.007094 144.182 
L 120.508283 143.971976 
" style="fill:none;stroke:#ffd700;stroke-linecap:square;stroke-width:2;"/>
   </g>
   <g id="line2d_3">
    <path clip-path="url(#p8301c66d38)" d="M 68.002338 145.022095 
L 78.503527 144.812071 
L 89.00293 144.528736 
L 99.493891 144.025332 
L 109.960469 143.154921 
L 120.371133 141.770984 
" style="fill:none;stroke:#ffd700;stroke-linecap:square;stroke-width:2;"/>
   </g>
   <g id="line2d_4">
    <path clip-path="url(#p8301c66d38)" d="M 68.002338 145.022095 
L 78.503527 144.812071 
L 89.005863 144.675373 
L 99.508563 144.758903 
L 110.001573 145.210123 
L 120.459248 146.176692 
" style="fill:none;stroke:#ffd700;stroke-linecap:square;stroke-width:2;"/>
   </g>
   <g id="line2d_5">
    <path clip-path="url(#p8301c66d38)" d="M 120.508283 143.971976 
L 131.009472 143.761953 
L 141.510661 143.551929 
L 152.01185 143.341905 
L 162.513039 143.131881 
L 173.014228 142.921857 
" style="fill:none;stroke:#ffd700;stroke-linecap:square;stroke-width:2;"/>
   </g>
   <g id="line2d_6">
    <path clip-path="url(#p8301c66d38)" d="M 120.508283 143.971976 
L 131.009472 143.761953 
L 141.508875 143.478617 
L 151.999836 142.975213 
L 162.466414 142.104802 
L 172.877078 140.720865 
" style="fill:none;stroke:#ffd700;stroke-linecap:square;stroke-width:2;"/>
   </g>
   <g id="line2d_7">
    <path clip-path="url(#p8301c66d38)" d="M 120.508283 143.971976 
L 131.009472 143.761953 
L 141.511807 143.625254 
L 152.014507 143.708784 
L 162.507518 144.160004 
L 172.965192 145.126573 
" style="fill:none;stroke:#ffd700;stroke-linecap:square;stroke-width:2;"/>
   </g>
   <g id="line2d_8">
    <path clip-path="url(#p8301c66d38)" d="M 173.014228 142.921857 
L 183.515417 142.711834 
L 194.016606 142.50181 
L 204.517794 142.291786 
L 215.018983 142.081762 
L 225.520172 141.871739 
" style="fill:none;stroke:#ffd700;stroke-linecap:square;stroke-width:2;"/>
   </g>
   <g id="line2d_9">
    <path clip-path="url(#p8301c66d38)" d="M 173.014228 142.921857 
L 183.515417 142.711834 
L 194.014819 142.428498 
L 204.50578 141.925094 
L 214.972358 141.054683 
L 225.383023 139.670747 
" style="fill:none;stroke:#ffd700;stroke-linecap:square;stroke-width:2;"/>
   </g>
   <g id="line2d_10">
    <path clip-path="url(#p8301c66d38)" d="M 173.014228 142.921857 
L 183.515417 142.711834 
L 194.017752 142.575135 
L 204.520452 142.658666 
L 215.013462 143.109885 
L 225.471137 144.076454 
" style="fill:none;stroke:#ffd700;stroke-linecap:square;stroke-width:2;"/>
   </g>
   <g id="line2d_11">
    <path clip-path="url(#p8301c66d38)" d="M 225.520172 141.871739 
L 236.021361 141.661715 
L 246.52255 141.451691 
L 257.023739 141.241667 
L 267.524928 141.031643 
L 278.026117 140.82162 
" style="fill:none;stroke:#ffd700;stroke-linecap:square;stroke-width:2;"/>
   </g>
   <g id="line2d_12">
    <path clip-path="url(#p8301c66d38)" d="M 225.520172 141.871739 
L 236.021361 141.661715 
L 246.520764 141.378379 
L 257.011725 140.874975 
L 267.478303 140.004564 
L 277.888967 138.620628 
" style="fill:none;stroke:#ffd700;stroke-linecap:square;stroke-width:2;"/>
   </g>
   <g id="line2d_13">
    <path clip-path="url(#p8301c66d38)" d="M 225.520172 141.871739 
L 236.021361 141.661715 
L 246.523697 141.525016 
L 257.026396 141.608547 
L 267.519407 142.059766 
L 277.977081 143.026335 
" style="fill:none;stroke:#ffd700;stroke-linecap:square;stroke-width:2;"/>
   </g>
   <g id="line2d_14">
    <path clip-path="url(#p8301c66d38)" d="M 278.026117 140.82162 
L 288.527306 140.611596 
L 299.028495 140.401572 
L 309.529684 140.191548 
L 320.030873 139.981525 
L 330.532062 139.771501 
" style="fill:none;stroke:#ffd700;stroke-linecap:square;stroke-width:2;"/>
   </g>
   <g id="line2d_15">
    <path clip-path="url(#p8301c66d38)" d="M 278.026117 140.82162 
L 288.527306 140.611596 
L 299.026708 140.32826 
L 309.51767 139.824856 
L 319.984248 138.954445 
L 330.394912 137.570509 
" style="fill:none;stroke:#ffd700;stroke-linecap:square;stroke-width:2;"/>
   </g>
   <g id="line2d_16">
    <path clip-path="url(#p8301c66d38)" d="M 278.026117 140.82162 
L 288.527306 140.611596 
L 299.029641 140.474897 
L 309.532341 140.558428 
L 320.025352 141.009647 
L 330.483026 141.976217 
" style="fill:none;stroke:#ffd700;stroke-linecap:square;stroke-width:2;"/>
   </g>
   <g id="line2d_17">
    <path clip-path="url(#p8301c66d38)" d="M 330.532062 139.771501 
L 341.03325 139.561477 
L 351.534439 139.351453 
L 362.035628 139.141429 
L 372.536817 138.931406 
L 383.038006 138.721382 
" style="fill:none;stroke:#ffd700;stroke-linecap:square;stroke-width:2;"/>
   </g>
   <g id="line2d_18">
    <path clip-path="url(#p8301c66d38)" d="M 330.532062 139.771501 
L 341.03325 139.561477 
L 351.532653 139.278141 
L 362.023614 138.774737 
L 372.490192 137.904326 
L 382.900856 136.52039 
" style="fill:none;stroke:#ffd700;stroke-linecap:square;stroke-width:2;"/>
   </g>
   <g id="line2d_19">
    <path clip-path="url(#p8301c66d38)" d="M 330.532062 139.771501 
L 341.03325 139.561477 
L 351.535586 139.424778 
L 362.038286 139.508309 
L 372.531296 139.959528 
L 382.988971 140.926098 
" style="fill:none;stroke:#ffd700;stroke-linecap:square;stroke-width:2;"/>
   </g>
   <g id="line2d_20">
    <path clip-path="url(#p8301c66d38)" d="M 383.038006 138.721382 
L 393.539195 138.511358 
L 404.040384 138.301334 
L 414.541573 138.091311 
L 425.042762 137.881287 
L 435.543951 137.671263 
" style="fill:none;stroke:#ffd700;stroke-linecap:square;stroke-width:2;"/>
   </g>
   <g id="line2d_21">
    <path clip-path="url(#p8301c66d38)" d="M 383.038006 138.721382 
L 393.539195 138.511358 
L 404.038598 138.228022 
L 414.529559 137.724618 
L 424.996137 136.854207 
L 435.406801 135.470271 
" style="fill:none;stroke:#ffd700;stroke-linecap:square;stroke-width:2;"/>
   </g>
   <g id="line2d_22">
    <path clip-path="url(#p8301c66d38)" d="M 383.038006 138.721382 
L 393.539195 138.511358 
L 404.04153 138.374659 
L 414.54423 138.45819 
L 425.037241 138.909409 
L 435.494915 139.875979 
" style="fill:none;stroke:#ffd700;stroke-linecap:square;stroke-width:2;"/>
   </g>
   <g id="line2d_23">
    <path clip-path="url(#p8301c66d38)" d="M 435.543951 137.671263 
L 446.04514 137.461239 
L 456.546329 137.251215 
L 467.047518 137.041192 
L 477.548706 136.831168 
L 488.049895 136.621144 
" style="fill:none;stroke:#ffd700;stroke-dasharray:7.4,3.2;stroke-dashoffset:0;stroke-width:2;"/>
   </g>
   <g id="line2d_24">
    <path clip-path="url(#p8301c66d38)" d="M 435.543951 137.671263 
L 446.04514 137.461239 
L 456.544542 137.177903 
L 467.035503 136.674499 
L 477.502081 135.804088 
L 487.912746 134.420152 
" style="fill:none;stroke:#ffd700;stroke-dasharray:7.4,3.2;stroke-dashoffset:0;stroke-width:2;"/>
   </g>
   <g id="line2d_25">
    <path clip-path="url(#p8301c66d38)" d="M 435.543951 137.671263 
L 446.04514 137.461239 
L 456.547475 137.32454 
L 467.050175 137.408071 
L 477.543185 137.85929 
L 488.00086 138.82586 
" style="fill:none;stroke:#ffd700;stroke-dasharray:7.4,3.2;stroke-dashoffset:0;stroke-width:2;"/>
   </g>
   <g id="line2d_26">
    <path clip-path="url(#p8301c66d38)" d="M 435.494915 139.875979 
L 445.867484 141.503953 
L 456.116387 143.787173 
L 466.241072 146.571689 
L 476.262357 149.709111 
L 486.21584 153.05602 
" style="fill:none;stroke:#ffd700;stroke-dasharray:7.4,3.2;stroke-dashoffset:0;stroke-width:2;"/>
   </g>
   <g id="line2d_27">
    <path clip-path="url(#p8301c66d38)" d="M 435.494915 139.875979 
L 445.867484 141.503953 
L 456.099037 143.861026 
L 466.138393 146.935406 
L 475.93533 150.711715 
L 485.440839 155.171062 
" style="fill:none;stroke:#ffd700;stroke-dasharray:7.4,3.2;stroke-dashoffset:0;stroke-width:2;"/>
   </g>
   <g id="line2d_28">
    <path clip-path="url(#p8301c66d38)" d="M 435.406801 135.470271 
L 445.705971 133.428807 
L 455.855372 130.737567 
L 465.860607 127.550399 
L 475.748412 124.014741 
L 485.560093 120.272476 
" style="fill:none;stroke:#ffd700;stroke-dasharray:7.4,3.2;stroke-dashoffset:0;stroke-width:2;"/>
   </g>
   <g id="line2d_29">
    <path clip-path="url(#p8301c66d38)" d="M 435.406801 135.470271 
L 445.705971 133.428807 
L 455.835083 130.664467 
L 465.743466 127.191078 
L 475.381554 123.026017 
L 484.701134 118.190118 
" style="fill:none;stroke:#ffd700;stroke-dasharray:7.4,3.2;stroke-dashoffset:0;stroke-width:2;"/>
   </g>
   <g id="line2d_30">
    <path clip-path="url(#p8301c66d38)" d="M 382.988971 140.926098 
L 393.361539 142.554072 
L 403.610442 144.837292 
L 413.735127 147.621807 
L 423.756412 150.75923 
L 433.709895 154.106139 
" style="fill:none;stroke:#ffd700;stroke-linecap:square;stroke-width:2;"/>
   </g>
   <g id="line2d_31">
    <path clip-path="url(#p8301c66d38)" d="M 382.988971 140.926098 
L 393.361539 142.554072 
L 403.593093 144.911144 
L 413.632449 147.985525 
L 423.429385 151.761834 
L 432.934895 156.221181 
" style="fill:none;stroke:#ffd700;stroke-linecap:square;stroke-width:2;"/>
   </g>
   <g id="line2d_32">
    <path clip-path="url(#p8301c66d38)" d="M 433.709895 154.106139 
L 443.639828 157.522483 
L 453.569761 160.938826 
L 463.499693 164.35517 
L 473.429626 167.771513 
L 483.359559 171.187857 
" style="fill:none;stroke:#ffd700;stroke-dasharray:7.4,3.2;stroke-dashoffset:0;stroke-width:2;"/>
   </g>
   <g id="line2d_33">
    <path clip-path="url(#p8301c66d38)" d="M 433.709895 154.106139 
L 443.639828 157.522483 
L 453.593311 160.869392 
L 463.614596 164.006815 
L 473.73928 166.791331 
L 483.988183 169.07455 
" style="fill:none;stroke:#ffd700;stroke-dasharray:7.4,3.2;stroke-dashoffset:0;stroke-width:2;"/>
   </g>
   <g id="line2d_34">
    <path clip-path="url(#p8301c66d38)" d="M 433.709895 154.106139 
L 443.639828 157.522483 
L 453.545605 161.008052 
L 463.375943 164.700481 
L 473.070663 168.734731 
L 482.554878 173.240591 
" style="fill:none;stroke:#ffd700;stroke-dasharray:7.4,3.2;stroke-dashoffset:0;stroke-width:2;"/>
   </g>
   <g id="line2d_35">
    <path clip-path="url(#p8301c66d38)" d="M 432.934895 156.221181 
L 442.101426 161.341257 
L 450.924981 167.03318 
L 459.458367 173.152337 
L 467.772514 179.566738 
L 475.950493 186.154172 
" style="fill:none;stroke:#ffd700;stroke-linecap:square;stroke-width:2;"/>
   </g>
   <g id="line2d_36">
    <path clip-path="url(#p8301c66d38)" d="M 432.934895 156.221181 
L 442.101426 161.341257 
L 450.883124 167.096451 
L 459.23606 173.457972 
L 467.118447 180.393997 
L 474.490856 187.86983 
" style="fill:none;stroke:#ffd700;stroke-linecap:square;stroke-width:2;"/>
   </g>
   <g id="line2d_37">
    <path clip-path="url(#p8301c66d38)" d="M 382.900856 136.52039 
L 393.200027 134.478926 
L 403.349427 131.787686 
L 413.354662 128.600518 
L 423.242468 125.06486 
L 433.054148 121.322595 
" style="fill:none;stroke:#ffd700;stroke-linecap:square;stroke-width:2;"/>
   </g>
   <g id="line2d_38">
    <path clip-path="url(#p8301c66d38)" d="M 382.900856 136.52039 
L 393.200027 134.478926 
L 403.329138 131.714586 
L 413.237521 128.241197 
L 422.875609 124.076136 
L 432.195189 119.240237 
" style="fill:none;stroke:#ffd700;stroke-linecap:square;stroke-width:2;"/>
   </g>
   <g id="line2d_39">
    <path clip-path="url(#p8301c66d38)" d="M 433.054148 121.322595 
L 442.839521 117.511893 
L 452.624894 113.701191 
L 462.410266 109.890488 
L 472.195639 106.079786 
L 481.981012 102.269084 
" style="fill:none;stroke:#ffd700;stroke-linecap:square;stroke-width:2;"/>
   </g>
   <g id="line2d_40">
    <path clip-path="url(#p8301c66d38)" d="M 433.054148 121.322595 
L 442.839521 117.511893 
L 452.597989 113.632986 
L 462.272806 109.550402 
L 471.798444 105.131693 
L 481.094887 100.25017 
" style="fill:none;stroke:#ffd700;stroke-linecap:square;stroke-width:2;"/>
   </g>
   <g id="line2d_41">
    <path clip-path="url(#p8301c66d38)" d="M 433.054148 121.322595 
L 442.839521 117.511893 
L 452.651201 113.769627 
L 462.539007 110.23397 
L 472.544242 107.046802 
L 482.693643 104.355562 
" style="fill:none;stroke:#ffd700;stroke-linecap:square;stroke-width:2;"/>
   </g>
   <g id="line2d_42">
    <path clip-path="url(#p8301c66d38)" d="M 482.693643 104.355562 
L 492.992813 102.314098 
L 503.401392 100.93041 
L 513.865875 100.060145 
L 524.354737 99.556814 
L 534.85204 99.273507 
" style="fill:none;stroke:#ffd700;stroke-linecap:square;stroke-width:2;"/>
   </g>
   <g id="line2d_43">
    <path clip-path="url(#p8301c66d38)" d="M 482.693643 104.355562 
L 492.992813 102.314098 
L 503.410521 101.005723 
L 513.894652 100.436981 
L 524.392761 100.610719 
L 534.852332 101.526066 
" style="fill:none;stroke:#ffd700;stroke-linecap:square;stroke-width:2;"/>
   </g>
   <g id="line2d_44">
    <path clip-path="url(#p8301c66d38)" d="M 534.852332 101.526066 
L 545.221041 103.178445 
L 555.464543 105.485776 
L 565.582647 108.29411 
L 575.596521 111.455106 
L 585.5421 114.825429 
" style="fill:none;stroke:#ffd700;stroke-linecap:square;stroke-width:2;"/>
   </g>
   <g id="line2d_45">
    <path clip-path="url(#p8301c66d38)" d="M 534.852332 101.526066 
L 545.221041 103.178445 
L 555.447019 105.559588 
L 565.479113 108.657585 
L 575.267136 112.456938 
L 584.762125 116.93864 
" style="fill:none;stroke:#ffd700;stroke-linecap:square;stroke-width:2;"/>
   </g>
   <g id="line2d_46">
    <path clip-path="url(#p8301c66d38)" d="M 585.5421 114.825429 
L 595.463966 118.26513 
L 605.385832 121.704831 
L 615.307698 125.144533 
L 625.229564 128.584234 
L 635.15143 132.023935 
" style="fill:none;stroke:#ffd700;stroke-linecap:square;stroke-width:2;"/>
   </g>
   <g id="line2d_47">
    <path clip-path="url(#p8301c66d38)" d="M 585.5421 114.825429 
L 595.463966 118.26513 
L 605.409546 121.635453 
L 615.42342 124.796449 
L 625.541524 127.604783 
L 635.785026 129.912114 
" style="fill:none;stroke:#ffd700;stroke-linecap:square;stroke-width:2;"/>
   </g>
   <g id="line2d_48">
    <path clip-path="url(#p8301c66d38)" d="M 585.5421 114.825429 
L 595.463966 118.26513 
L 605.361514 121.774 
L 615.183136 125.489551 
L 624.868335 129.546604 
L 634.341921 134.07477 
" style="fill:none;stroke:#ffd700;stroke-linecap:square;stroke-width:2;"/>
   </g>
   <g id="line2d_49">
    <path clip-path="url(#p8301c66d38)" d="M 635.15143 132.023935 
L 645.073296 135.463636 
L 654.995162 138.903338 
L 664.917028 142.343039 
L 674.838894 145.78274 
L 684.76076 149.222441 
" style="fill:none;stroke:#ffd700;stroke-linecap:square;stroke-width:2;"/>
   </g>
   <g id="line2d_50">
    <path clip-path="url(#p8301c66d38)" d="M 635.15143 132.023935 
L 645.073296 135.463636 
L 654.995162 138.903338 
L 664.917028 142.343039 
L 674.838894 145.78274 
L 684.76076 149.222441 
" style="fill:none;stroke:#008000;stroke-linecap:square;stroke-width:3;"/>
   </g>
   <g id="line2d_51">
    <path clip-path="url(#p8301c66d38)" d="M 68.002338 145.022095 
" style="fill:none;stroke:#008000;stroke-linecap:square;stroke-width:3;"/>
   </g>
   <g id="line2d_52">
    <path clip-path="url(#p8301c66d38)" d="M 68.002338 145.022095 
L 78.503527 144.812071 
L 89.004716 144.602048 
L 99.505905 144.392024 
L 110.007094 144.182 
L 120.508283 143.971976 
" style="fill:none;stroke:#008000;stroke-linecap:square;stroke-width:3;"/>
   </g>
   <g id="line2d_53">
    <path clip-path="url(#p8301c66d38)" d="M 120.508283 143.971976 
L 131.009472 143.761953 
L 141.510661 143.551929 
L 152.01185 143.341905 
L 162.513039 143.131881 
L 173.014228 142.921857 
" style="fill:none;stroke:#008000;stroke-linecap:square;stroke-width:3;"/>
   </g>
   <g id="line2d_54">
    <path clip-path="url(#p8301c66d38)" d="M 173.014228 142.921857 
L 183.515417 142.711834 
L 194.016606 142.50181 
L 204.517794 142.291786 
L 215.018983 142.081762 
L 225.520172 141.871739 
" style="fill:none;stroke:#008000;stroke-linecap:square;stroke-width:3;"/>
   </g>
   <g id="line2d_55">
    <path clip-path="url(#p8301c66d38)" d="M 225.520172 141.871739 
L 236.021361 141.661715 
L 246.52255 141.451691 
L 257.023739 141.241667 
L 267.524928 141.031643 
L 278.026117 140.82162 
" style="fill:none;stroke:#008000;stroke-linecap:square;stroke-width:3;"/>
   </g>
   <g id="line2d_56">
    <path clip-path="url(#p8301c66d38)" d="M 278.026117 140.82162 
L 288.527306 140.611596 
L 299.028495 140.401572 
L 309.529684 140.191548 
L 320.030873 139.981525 
L 330.532062 139.771501 
" style="fill:none;stroke:#008000;stroke-linecap:square;stroke-width:3;"/>
   </g>
   <g id="line2d_57">
    <path clip-path="url(#p8301c66d38)" d="M 330.532062 139.771501 
L 341.03325 139.561477 
L 351.532653 139.278141 
L 362.023614 138.774737 
L 372.490192 137.904326 
L 382.900856 136.52039 
" style="fill:none;stroke:#008000;stroke-linecap:square;stroke-width:3;"/>
   </g>
   <g id="line2d_58">
    <path clip-path="url(#p8301c66d38)" d="M 382.900856 136.52039 
L 393.200027 134.478926 
L 403.349427 131.787686 
L 413.354662 128.600518 
L 423.242468 125.06486 
L 433.054148 121.322595 
" style="fill:none;stroke:#008000;stroke-linecap:square;stroke-width:3;"/>
   </g>
   <g id="line2d_59">
    <path clip-path="url(#p8301c66d38)" d="M 433.054148 121.322595 
L 442.839521 117.511893 
L 452.651201 113.769627 
L 462.539007 110.23397 
L 472.544242 107.046802 
L 482.693643 104.355562 
" style="fill:none;stroke:#008000;stroke-linecap:square;stroke-width:3;"/>
   </g>
   <g id="line2d_60">
    <path clip-path="url(#p8301c66d38)" d="M 482.693643 104.355562 
L 492.992813 102.314098 
L 503.410521 101.005723 
L 513.894652 100.436981 
L 524.392761 100.610719 
L 534.852332 101.526066 
" style="fill:none;stroke:#008000;stroke-linecap:square;stroke-width:3;"/>
   </g>
   <g id="line2d_61">
    <path clip-path="url(#p8301c66d38)" d="M 534.852332 101.526066 
L 545.221041 103.178445 
L 555.464543 105.485776 
L 565.582647 108.29411 
L 575.596521 111.455106 
L 585.5421 114.825429 
" style="fill:none;stroke:#008000;stroke-linecap:square;stroke-width:3;"/>
   </g>
   <g id="line2d_62">
    <path clip-path="url(#p8301c66d38)" d="M 585.5421 114.825429 
L 595.463966 118.26513 
L 605.385832 121.704831 
L 615.307698 125.144533 
L 625.229564 128.584234 
L 635.15143 132.023935 
" style="fill:none;stroke:#008000;stroke-linecap:square;stroke-width:3;"/>
   </g>
   <g id="line2d_63">
    <path clip-path="url(#p8301c66d38)" d="M 635.15143 132.023935 
L 645.073296 135.463636 
L 654.995162 138.903338 
L 664.917028 142.343039 
L 674.838894 145.78274 
L 684.76076 149.222441 
" style="fill:none;stroke:#008000;stroke-linecap:square;stroke-width:3;"/>
   </g>
   <g id="line2d_64">
    <path clip-path="url(#p8301c66d38)" d="M 68.002338 145.022095 
" style="fill:none;stroke:#ffd700;stroke-linecap:square;stroke-width:1.5;"/>
    <defs>
     <path d="M 0 4 
C 1.060812 4 2.078319 3.578535 2.828427 2.828427 
C 3.578535 2.078319 4 1.060812 4 0 
C 4 -1.060812 3.578535 -2.078319 2.828427 -2.828427 
C 2.078319 -3.578535 1.060812 -4 0 -4 
C -1.060812 -4 -2.078319 -3.578535 -2.828427 -2.828427 
C -3.578535 -2.078319 -4 -1.060812 -4 0 
C -4 1.060812 -3.578535 2.078319 -2.828427 2.828427 
C -2.078319 3.578535 -1.060812 4 0 4 
z
" id="m9da833a6d3" style="stroke:#ffd700;"/>
    </defs>
    <g clip-path="url(#p8301c66d38)">
     <use style="fill:#ffd700;stroke:#ffd700;" x="68.002338" xlink:href="#m9da833a6d3" y="145.022095"/>
    </g>
   </g>
   <g id="line2d_65">
    <path clip-path="url(#p8301c66d38)" d="M 120.508283 143.971976 
" style="fill:none;stroke:#ffd700;stroke-linecap:square;stroke-width:1.5;"/>
    <g clip-path="url(#p8301c66d38)">
     <use style="fill:#ffd700;stroke:#ffd700;" x="120.508283" xlink:href="#m9da833a6d3" y="143.971976"/>
    </g>
   </g>
   <g id="line2d_66">
    <path clip-path="url(#p8301c66d38)" d="M 120.371133 141.770984 
" style="fill:none;stroke:#ffd700;stroke-linecap:square;stroke-width:1.5;"/>
    <g clip-path="url(#p8301c66d38)">
     <use style="fill:#ffd700;stroke:#ffd700;" x="120.371133" xlink:href="#m9da833a6d3" y="141.770984"/>
    </g>
   </g>
   <g id="line2d_67">
    <path clip-path="url(#p8301c66d38)" d="M 120.459248 146.176692 
" style="fill:none;stroke:#ffd700;stroke-linecap:square;stroke-width:1.5;"/>
    <g clip-path="url(#p8301c66d38)">
     <use style="fill:#ffd700;stroke:#ffd700;" x="120.459248" xlink:href="#m9da833a6d3" y="146.176692"/>
    </g>
   </g>
   <g id="line2d_68">
    <path clip-path="url(#p8301c66d38)" d="M 173.014228 142.921857 
" style="fill:none;stroke:#ffd700;stroke-linecap:square;stroke-width:1.5;"/>
    <g clip-path="url(#p8301c66d38)">
     <use style="fill:#ffd700;stroke:#ffd700;" x="173.014228" xlink:href="#m9da833a6d3" y="142.921857"/>
    </g>
   </g>
   <g id="line2d_69">
    <path clip-path="url(#p8301c66d38)" d="M 172.877078 140.720865 
" style="fill:none;stroke:#ffd700;stroke-linecap:square;stroke-width:1.5;"/>
    <g clip-path="url(#p8301c66d38)">
     <use style="fill:#ffd700;stroke:#ffd700;" x="172.877078" xlink:href="#m9da833a6d3" y="140.720865"/>
    </g>
   </g>
   <g id="line2d_70">
    <path clip-path="url(#p8301c66d38)" d="M 172.965192 145.126573 
" style="fill:none;stroke:#ffd700;stroke-linecap:square;stroke-width:1.5;"/>
    <g clip-path="url(#p8301c66d38)">
     <use style="fill:#ffd700;stroke:#ffd700;" x="172.965192" xlink:href="#m9da833a6d3" y="145.126573"/>
    </g>
   </g>
   <g id="line2d_71">
    <path clip-path="url(#p8301c66d38)" d="M 225.520172 141.871739 
" style="fill:none;stroke:#ffd700;stroke-linecap:square;stroke-width:1.5;"/>
    <g clip-path="url(#p8301c66d38)">
     <use style="fill:#ffd700;stroke:#ffd700;" x="225.520172" xlink:href="#m9da833a6d3" y="141.871739"/>
    </g>
   </g>
   <g id="line2d_72">
    <path clip-path="url(#p8301c66d38)" d="M 225.383023 139.670747 
" style="fill:none;stroke:#ffd700;stroke-linecap:square;stroke-width:1.5;"/>
    <g clip-path="url(#p8301c66d38)">
     <use style="fill:#ffd700;stroke:#ffd700;" x="225.383023" xlink:href="#m9da833a6d3" y="139.670747"/>
    </g>
   </g>
   <g id="line2d_73">
    <path clip-path="url(#p8301c66d38)" d="M 225.471137 144.076454 
" style="fill:none;stroke:#ffd700;stroke-linecap:square;stroke-width:1.5;"/>
    <g clip-path="url(#p8301c66d38)">
     <use style="fill:#ffd700;stroke:#ffd700;" x="225.471137" xlink:href="#m9da833a6d3" y="144.076454"/>
    </g>
   </g>
   <g id="line2d_74">
    <path clip-path="url(#p8301c66d38)" d="M 278.026117 140.82162 
" style="fill:none;stroke:#ffd700;stroke-linecap:square;stroke-width:1.5;"/>
    <g clip-path="url(#p8301c66d38)">
     <use style="fill:#ffd700;stroke:#ffd700;" x="278.026117" xlink:href="#m9da833a6d3" y="140.82162"/>
    </g>
   </g>
   <g id="line2d_75">
    <path clip-path="url(#p8301c66d38)" d="M 277.888967 138.620628 
" style="fill:none;stroke:#ffd700;stroke-linecap:square;stroke-width:1.5;"/>
    <g clip-path="url(#p8301c66d38)">
     <use style="fill:#ffd700;stroke:#ffd700;" x="277.888967" xlink:href="#m9da833a6d3" y="138.620628"/>
    </g>
   </g>
   <g id="line2d_76">
    <path clip-path="url(#p8301c66d38)" d="M 277.977081 143.026335 
" style="fill:none;stroke:#ffd700;stroke-linecap:square;stroke-width:1.5;"/>
    <g clip-path="url(#p8301c66d38)">
     <use style="fill:#ffd700;stroke:#ffd700;" x="277.977081" xlink:href="#m9da833a6d3" y="143.026335"/>
    </g>
   </g>
   <g id="line2d_77">
    <path clip-path="url(#p8301c66d38)" d="M 330.532062 139.771501 
" style="fill:none;stroke:#ffd700;stroke-linecap:square;stroke-width:1.5;"/>
    <g clip-path="url(#p8301c66d38)">
     <use style="fill:#ffd700;stroke:#ffd700;" x="330.532062" xlink:href="#m9da833a6d3" y="139.771501"/>
    </g>
   </g>
   <g id="line2d_78">
    <path clip-path="url(#p8301c66d38)" d="M 330.394912 137.570509 
" style="fill:none;stroke:#ffd700;stroke-linecap:square;stroke-width:1.5;"/>
    <g clip-path="url(#p8301c66d38)">
     <use style="fill:#ffd700;stroke:#ffd700;" x="330.394912" xlink:href="#m9da833a6d3" y="137.570509"/>
    </g>
   </g>
   <g id="line2d_79">
    <path clip-path="url(#p8301c66d38)" d="M 330.483026 141.976217 
" style="fill:none;stroke:#ffd700;stroke-linecap:square;stroke-width:1.5;"/>
    <g clip-path="url(#p8301c66d38)">
     <use style="fill:#ffd700;stroke:#ffd700;" x="330.483026" xlink:href="#m9da833a6d3" y="141.976217"/>
    </g>
   </g>
   <g id="line2d_80">
    <path clip-path="url(#p8301c66d38)" d="M 383.038006 138.721382 
" style="fill:none;stroke:#ffd700;stroke-linecap:square;stroke-width:1.5;"/>
    <g clip-path="url(#p8301c66d38)">
     <use style="fill:#ffd700;stroke:#ffd700;" x="383.038006" xlink:href="#m9da833a6d3" y="138.721382"/>
    </g>
   </g>
   <g id="line2d_81">
    <path clip-path="url(#p8301c66d38)" d="M 382.900856 136.52039 
" style="fill:none;stroke:#ffd700;stroke-linecap:square;stroke-width:1.5;"/>
    <g clip-path="url(#p8301c66d38)">
     <use style="fill:#ffd700;stroke:#ffd700;" x="382.900856" xlink:href="#m9da833a6d3" y="136.52039"/>
    </g>
   </g>
   <g id="line2d_82">
    <path clip-path="url(#p8301c66d38)" d="M 382.988971 140.926098 
" style="fill:none;stroke:#ffd700;stroke-linecap:square;stroke-width:1.5;"/>
    <g clip-path="url(#p8301c66d38)">
     <use style="fill:#ffd700;stroke:#ffd700;" x="382.988971" xlink:href="#m9da833a6d3" y="140.926098"/>
    </g>
   </g>
   <g id="line2d_83">
    <path clip-path="url(#p8301c66d38)" d="M 435.543951 137.671263 
" style="fill:none;stroke:#ffd700;stroke-linecap:square;stroke-width:1.5;"/>
    <g clip-path="url(#p8301c66d38)">
     <use style="fill:#ffd700;stroke:#ffd700;" x="435.543951" xlink:href="#m9da833a6d3" y="137.671263"/>
    </g>
   </g>
   <g id="line2d_84">
    <path clip-path="url(#p8301c66d38)" d="M 435.406801 135.470271 
" style="fill:none;stroke:#ffd700;stroke-linecap:square;stroke-width:1.5;"/>
    <g clip-path="url(#p8301c66d38)">
     <use style="fill:#ffd700;stroke:#ffd700;" x="435.406801" xlink:href="#m9da833a6d3" y="135.470271"/>
    </g>
   </g>
   <g id="line2d_85">
    <path clip-path="url(#p8301c66d38)" d="M 435.494915 139.875979 
" style="fill:none;stroke:#ffd700;stroke-linecap:square;stroke-width:1.5;"/>
    <g clip-path="url(#p8301c66d38)">
     <use style="fill:#ffd700;stroke:#ffd700;" x="435.494915" xlink:href="#m9da833a6d3" y="139.875979"/>
    </g>
   </g>
   <g id="line2d_86">
    <path clip-path="url(#p8301c66d38)" d="M 488.049895 136.621144 
" style="fill:none;stroke:#ffd700;stroke-linecap:square;stroke-width:1.5;"/>
    <g clip-path="url(#p8301c66d38)">
     <use style="fill:#ffd700;stroke:#ffd700;" x="488.049895" xlink:href="#m9da833a6d3" y="136.621144"/>
    </g>
   </g>
   <g id="line2d_87">
    <path clip-path="url(#p8301c66d38)" d="M 487.912746 134.420152 
" style="fill:none;stroke:#ffd700;stroke-linecap:square;stroke-width:1.5;"/>
    <g clip-path="url(#p8301c66d38)">
     <use style="fill:#ffd700;stroke:#ffd700;" x="487.912746" xlink:href="#m9da833a6d3" y="134.420152"/>
    </g>
   </g>
   <g id="line2d_88">
    <path clip-path="url(#p8301c66d38)" d="M 488.00086 138.82586 
" style="fill:none;stroke:#ffd700;stroke-linecap:square;stroke-width:1.5;"/>
    <g clip-path="url(#p8301c66d38)">
     <use style="fill:#ffd700;stroke:#ffd700;" x="488.00086" xlink:href="#m9da833a6d3" y="138.82586"/>
    </g>
   </g>
   <g id="line2d_89">
    <path clip-path="url(#p8301c66d38)" d="M 486.21584 153.05602 
" style="fill:none;stroke:#ffd700;stroke-linecap:square;stroke-width:1.5;"/>
    <g clip-path="url(#p8301c66d38)">
     <use style="fill:#ffd700;stroke:#ffd700;" x="486.21584" xlink:href="#m9da833a6d3" y="153.05602"/>
    </g>
   </g>
   <g id="line2d_90">
    <path clip-path="url(#p8301c66d38)" d="M 485.440839 155.171062 
" style="fill:none;stroke:#ffd700;stroke-linecap:square;stroke-width:1.5;"/>
    <g clip-path="url(#p8301c66d38)">
     <use style="fill:#ffd700;stroke:#ffd700;" x="485.440839" xlink:href="#m9da833a6d3" y="155.171062"/>
    </g>
   </g>
   <g id="line2d_91">
    <path clip-path="url(#p8301c66d38)" d="M 485.560093 120.272476 
" style="fill:none;stroke:#ffd700;stroke-linecap:square;stroke-width:1.5;"/>
    <g clip-path="url(#p8301c66d38)">
     <use style="fill:#ffd700;stroke:#ffd700;" x="485.560093" xlink:href="#m9da833a6d3" y="120.272476"/>
    </g>
   </g>
   <g id="line2d_92">
    <path clip-path="url(#p8301c66d38)" d="M 484.701134 118.190118 
" style="fill:none;stroke:#ffd700;stroke-linecap:square;stroke-width:1.5;"/>
    <g clip-path="url(#p8301c66d38)">
     <use style="fill:#ffd700;stroke:#ffd700;" x="484.701134" xlink:href="#m9da833a6d3" y="118.190118"/>
    </g>
   </g>
   <g id="line2d_93">
    <path clip-path="url(#p8301c66d38)" d="M 433.709895 154.106139 
" style="fill:none;stroke:#ffd700;stroke-linecap:square;stroke-width:1.5;"/>
    <g clip-path="url(#p8301c66d38)">
     <use style="fill:#ffd700;stroke:#ffd700;" x="433.709895" xlink:href="#m9da833a6d3" y="154.106139"/>
    </g>
   </g>
   <g id="line2d_94">
    <path clip-path="url(#p8301c66d38)" d="M 432.934895 156.221181 
" style="fill:none;stroke:#ffd700;stroke-linecap:square;stroke-width:1.5;"/>
    <g clip-path="url(#p8301c66d38)">
     <use style="fill:#ffd700;stroke:#ffd700;" x="432.934895" xlink:href="#m9da833a6d3" y="156.221181"/>
    </g>
   </g>
   <g id="line2d_95">
    <path clip-path="url(#p8301c66d38)" d="M 483.359559 171.187857 
" style="fill:none;stroke:#ffd700;stroke-linecap:square;stroke-width:1.5;"/>
    <g clip-path="url(#p8301c66d38)">
     <use style="fill:#ffd700;stroke:#ffd700;" x="483.359559" xlink:href="#m9da833a6d3" y="171.187857"/>
    </g>
   </g>
   <g id="line2d_96">
    <path clip-path="url(#p8301c66d38)" d="M 483.988183 169.07455 
" style="fill:none;stroke:#ffd700;stroke-linecap:square;stroke-width:1.5;"/>
    <g clip-path="url(#p8301c66d38)">
     <use style="fill:#ffd700;stroke:#ffd700;" x="483.988183" xlink:href="#m9da833a6d3" y="169.07455"/>
    </g>
   </g>
   <g id="line2d_97">
    <path clip-path="url(#p8301c66d38)" d="M 482.554878 173.240591 
" style="fill:none;stroke:#ffd700;stroke-linecap:square;stroke-width:1.5;"/>
    <g clip-path="url(#p8301c66d38)">
     <use style="fill:#ffd700;stroke:#ffd700;" x="482.554878" xlink:href="#m9da833a6d3" y="173.240591"/>
    </g>
   </g>
   <g id="line2d_98">
    <path clip-path="url(#p8301c66d38)" d="M 475.950493 186.154172 
" style="fill:none;stroke:#ffd700;stroke-linecap:square;stroke-width:1.5;"/>
    <g clip-path="url(#p8301c66d38)">
     <use style="fill:#ffd700;stroke:#ffd700;" x="475.950493" xlink:href="#m9da833a6d3" y="186.154172"/>
    </g>
   </g>
   <g id="line2d_99">
    <path clip-path="url(#p8301c66d38)" d="M 474.490856 187.86983 
" style="fill:none;stroke:#ffd700;stroke-linecap:square;stroke-width:1.5;"/>
    <g clip-path="url(#p8301c66d38)">
     <use style="fill:#ffd700;stroke:#ffd700;" x="474.490856" xlink:href="#m9da833a6d3" y="187.86983"/>
    </g>
   </g>
   <g id="line2d_100">
    <path clip-path="url(#p8301c66d38)" d="M 433.054148 121.322595 
" style="fill:none;stroke:#ffd700;stroke-linecap:square;stroke-width:1.5;"/>
    <g clip-path="url(#p8301c66d38)">
     <use style="fill:#ffd700;stroke:#ffd700;" x="433.054148" xlink:href="#m9da833a6d3" y="121.322595"/>
    </g>
   </g>
   <g id="line2d_101">
    <path clip-path="url(#p8301c66d38)" d="M 432.195189 119.240237 
" style="fill:none;stroke:#ffd700;stroke-linecap:square;stroke-width:1.5;"/>
    <g clip-path="url(#p8301c66d38)">
     <use style="fill:#ffd700;stroke:#ffd700;" x="432.195189" xlink:href="#m9da833a6d3" y="119.240237"/>
    </g>
   </g>
   <g id="line2d_102">
    <path clip-path="url(#p8301c66d38)" d="M 481.981012 102.269084 
" style="fill:none;stroke:#ffd700;stroke-linecap:square;stroke-width:1.5;"/>
    <g clip-path="url(#p8301c66d38)">
     <use style="fill:#ffd700;stroke:#ffd700;" x="481.981012" xlink:href="#m9da833a6d3" y="102.269084"/>
    </g>
   </g>
   <g id="line2d_103">
    <path clip-path="url(#p8301c66d38)" d="M 481.094887 100.25017 
" style="fill:none;stroke:#ffd700;stroke-linecap:square;stroke-width:1.5;"/>
    <g clip-path="url(#p8301c66d38)">
     <use style="fill:#ffd700;stroke:#ffd700;" x="481.094887" xlink:href="#m9da833a6d3" y="100.25017"/>
    </g>
   </g>
   <g id="line2d_104">
    <path clip-path="url(#p8301c66d38)" d="M 482.693643 104.355562 
" style="fill:none;stroke:#ffd700;stroke-linecap:square;stroke-width:1.5;"/>
    <g clip-path="url(#p8301c66d38)">
     <use style="fill:#ffd700;stroke:#ffd700;" x="482.693643" xlink:href="#m9da833a6d3" y="104.355562"/>
    </g>
   </g>
   <g id="line2d_105">
    <path clip-path="url(#p8301c66d38)" d="M 534.85204 99.273507 
" style="fill:none;stroke:#ffd700;stroke-linecap:square;stroke-width:1.5;"/>
    <g clip-path="url(#p8301c66d38)">
     <use style="fill:#ffd700;stroke:#ffd700;" x="534.85204" xlink:href="#m9da833a6d3" y="99.273507"/>
    </g>
   </g>
   <g id="line2d_106">
    <path clip-path="url(#p8301c66d38)" d="M 534.852332 101.526066 
" style="fill:none;stroke:#ffd700;stroke-linecap:square;stroke-width:1.5;"/>
    <g clip-path="url(#p8301c66d38)">
     <use style="fill:#ffd700;stroke:#ffd700;" x="534.852332" xlink:href="#m9da833a6d3" y="101.526066"/>
    </g>
   </g>
   <g id="line2d_107">
    <path clip-path="url(#p8301c66d38)" d="M 585.5421 114.825429 
" style="fill:none;stroke:#ffd700;stroke-linecap:square;stroke-width:1.5;"/>
    <g clip-path="url(#p8301c66d38)">
     <use style="fill:#ffd700;stroke:#ffd700;" x="585.5421" xlink:href="#m9da833a6d3" y="114.825429"/>
    </g>
   </g>
   <g id="line2d_108">
    <path clip-path="url(#p8301c66d38)" d="M 584.762125 116.93864 
" style="fill:none;stroke:#ffd700;stroke-linecap:square;stroke-width:1.5;"/>
    <g clip-path="url(#p8301c66d38)">
     <use style="fill:#ffd700;stroke:#ffd700;" x="584.762125" xlink:href="#m9da833a6d3" y="116.93864"/>
    </g>
   </g>
   <g id="line2d_109">
    <path clip-path="url(#p8301c66d38)" d="M 635.15143 132.023935 
" style="fill:none;stroke:#ffd700;stroke-linecap:square;stroke-width:1.5;"/>
    <g clip-path="url(#p8301c66d38)">
     <use style="fill:#ffd700;stroke:#ffd700;" x="635.15143" xlink:href="#m9da833a6d3" y="132.023935"/>
    </g>
   </g>
   <g id="line2d_110">
    <path clip-path="url(#p8301c66d38)" d="M 635.785026 129.912114 
" style="fill:none;stroke:#ffd700;stroke-linecap:square;stroke-width:1.5;"/>
    <g clip-path="url(#p8301c66d38)">
     <use style="fill:#ffd700;stroke:#ffd700;" x="635.785026" xlink:href="#m9da833a6d3" y="129.912114"/>
    </g>
   </g>
   <g id="line2d_111">
    <path clip-path="url(#p8301c66d38)" d="M 634.341921 134.07477 
" style="fill:none;stroke:#ffd700;stroke-linecap:square;stroke-width:1.5;"/>
    <g clip-path="url(#p8301c66d38)">
     <use style="fill:#ffd700;stroke:#ffd700;" x="634.341921" xlink:href="#m9da833a6d3" y="134.07477"/>
    </g>
   </g>
   <g id="line2d_112">
    <path clip-path="url(#p8301c66d38)" d="M 684.76076 149.222441 
" style="fill:none;stroke:#ffd700;stroke-linecap:square;stroke-width:1.5;"/>
    <g clip-path="url(#p8301c66d38)">
     <use style="fill:#ffd700;stroke:#ffd700;" x="684.76076" xlink:href="#m9da833a6d3" y="149.222441"/>
    </g>
   </g>
   <g id="line2d_113">
    <path clip-path="url(#p8301c66d38)" d="M 684.76076 149.222441 
" style="fill:none;stroke:#008000;stroke-linecap:square;stroke-width:1.5;"/>
    <defs>
     <path d="M 0 4 
C 1.060812 4 2.078319 3.578535 2.828427 2.828427 
C 3.578535 2.078319 4 1.060812 4 0 
C 4 -1.060812 3.578535 -2.078319 2.828427 -2.828427 
C 2.078319 -3.578535 1.060812 -4 0 -4 
C -1.060812 -4 -2.078319 -3.578535 -2.828427 -2.828427 
C -3.578535 -2.078319 -4 -1.060812 -4 0 
C -4 1.060812 -3.578535 2.078319 -2.828427 2.828427 
C -2.078319 3.578535 -1.060812 4 0 4 
z
" id="mdc6f5efae7" style="stroke:#008000;"/>
    </defs>
    <g clip-path="url(#p8301c66d38)">
     <use style="fill:#008000;stroke:#008000;" x="684.76076" xlink:href="#mdc6f5efae7" y="149.222441"/>
    </g>
   </g>
   <g id="line2d_114">
    <path clip-path="url(#p8301c66d38)" d="M 68.002338 145.022095 
" style="fill:none;stroke:#008000;stroke-linecap:square;stroke-width:1.5;"/>
    <g clip-path="url(#p8301c66d38)">
     <use style="fill:#008000;stroke:#008000;" x="68.002338" xlink:href="#mdc6f5efae7" y="145.022095"/>
    </g>
   </g>
   <g id="line2d_115">
    <path clip-path="url(#p8301c66d38)" d="M 120.508283 143.971976 
" style="fill:none;stroke:#008000;stroke-linecap:square;stroke-width:1.5;"/>
    <g clip-path="url(#p8301c66d38)">
     <use style="fill:#008000;stroke:#008000;" x="120.508283" xlink:href="#mdc6f5efae7" y="143.971976"/>
    </g>
   </g>
   <g id="line2d_116">
    <path clip-path="url(#p8301c66d38)" d="M 173.014228 142.921857 
" style="fill:none;stroke:#008000;stroke-linecap:square;stroke-width:1.5;"/>
    <g clip-path="url(#p8301c66d38)">
     <use style="fill:#008000;stroke:#008000;" x="173.014228" xlink:href="#mdc6f5efae7" y="142.921857"/>
    </g>
   </g>
   <g id="line2d_117">
    <path clip-path="url(#p8301c66d38)" d="M 225.520172 141.871739 
" style="fill:none;stroke:#008000;stroke-linecap:square;stroke-width:1.5;"/>
    <g clip-path="url(#p8301c66d38)">
     <use style="fill:#008000;stroke:#008000;" x="225.520172" xlink:href="#mdc6f5efae7" y="141.871739"/>
    </g>
   </g>
   <g id="line2d_118">
    <path clip-path="url(#p8301c66d38)" d="M 278.026117 140.82162 
" style="fill:none;stroke:#008000;stroke-linecap:square;stroke-width:1.5;"/>
    <g clip-path="url(#p8301c66d38)">
     <use style="fill:#008000;stroke:#008000;" x="278.026117" xlink:href="#mdc6f5efae7" y="140.82162"/>
    </g>
   </g>
   <g id="line2d_119">
    <path clip-path="url(#p8301c66d38)" d="M 330.532062 139.771501 
" style="fill:none;stroke:#008000;stroke-linecap:square;stroke-width:1.5;"/>
    <g clip-path="url(#p8301c66d38)">
     <use style="fill:#008000;stroke:#008000;" x="330.532062" xlink:href="#mdc6f5efae7" y="139.771501"/>
    </g>
   </g>
   <g id="line2d_120">
    <path clip-path="url(#p8301c66d38)" d="M 382.900856 136.52039 
" style="fill:none;stroke:#008000;stroke-linecap:square;stroke-width:1.5;"/>
    <g clip-path="url(#p8301c66d38)">
     <use style="fill:#008000;stroke:#008000;" x="382.900856" xlink:href="#mdc6f5efae7" y="136.52039"/>
    </g>
   </g>
   <g id="line2d_121">
    <path clip-path="url(#p8301c66d38)" d="M 433.054148 121.322595 
" style="fill:none;stroke:#008000;stroke-linecap:square;stroke-width:1.5;"/>
    <g clip-path="url(#p8301c66d38)">
     <use style="fill:#008000;stroke:#008000;" x="433.054148" xlink:href="#mdc6f5efae7" y="121.322595"/>
    </g>
   </g>
   <g id="line2d_122">
    <path clip-path="url(#p8301c66d38)" d="M 482.693643 104.355562 
" style="fill:none;stroke:#008000;stroke-linecap:square;stroke-width:1.5;"/>
    <g clip-path="url(#p8301c66d38)">
     <use style="fill:#008000;stroke:#008000;" x="482.693643" xlink:href="#mdc6f5efae7" y="104.355562"/>
    </g>
   </g>
   <g id="line2d_123">
    <path clip-path="url(#p8301c66d38)" d="M 534.852332 101.526066 
" style="fill:none;stroke:#008000;stroke-linecap:square;stroke-width:1.5;"/>
    <g clip-path="url(#p8301c66d38)">
     <use style="fill:#008000;stroke:#008000;" x="534.852332" xlink:href="#mdc6f5efae7" y="101.526066"/>
    </g>
   </g>
   <g id="line2d_124">
    <path clip-path="url(#p8301c66d38)" d="M 585.5421 114.825429 
" style="fill:none;stroke:#008000;stroke-linecap:square;stroke-width:1.5;"/>
    <g clip-path="url(#p8301c66d38)">
     <use style="fill:#008000;stroke:#008000;" x="585.5421" xlink:href="#mdc6f5efae7" y="114.825429"/>
    </g>
   </g>
   <g id="line2d_125">
    <path clip-path="url(#p8301c66d38)" d="M 635.15143 132.023935 
" style="fill:none;stroke:#008000;stroke-linecap:square;stroke-width:1.5;"/>
    <g clip-path="url(#p8301c66d38)">
     <use style="fill:#008000;stroke:#008000;" x="635.15143" xlink:href="#mdc6f5efae7" y="132.023935"/>
    </g>
   </g>
   <g id="line2d_126">
    <path clip-path="url(#p8301c66d38)" d="M 684.76076 149.222441 
" style="fill:none;stroke:#008000;stroke-linecap:square;stroke-width:1.5;"/>
    <g clip-path="url(#p8301c66d38)">
     <use style="fill:#008000;stroke:#008000;" x="684.76076" xlink:href="#mdc6f5efae7" y="149.222441"/>
    </g>
   </g>
  </g>
 </g>
 <defs>
  <clipPath id="p8301c66d38">
   <rect height="277.2" width="763.344" x="7.2" y="7.2"/>
  </clipPath>
 </defs>
</svg>
