<?xml version="1.0" encoding="utf-8" standalone="no"?>
<!DOCTYPE svg PUBLIC "-//W3C//DTD SVG 1.1//EN"
  "http://www.w3.org/Graphics/SVG/1.1/DTD/svg11.dtd">
<!-- Created with matplotlib (https://matplotlib.org/) -->
<svg height="291.6pt" version="1.1" viewBox="0 0 777.744 291.6" width="777.744pt" xmlns="http://www.w3.org/2000/svg" xmlns:xlink="http://www.w3.org/1999/xlink">
 <metadata>
  <rdf:RDF xmlns:cc="http://creativecommons.org/ns#" xmlns:dc="http://purl.org/dc/elements/1.1/" xmlns:rdf="http://www.w3.org/1999/02/22-rdf-syntax-ns#">
   <cc:Work>
    <dc:type rdf:resource="http://purl.org/dc/dcmitype/StillImage"/>
    <dc:date>2022-04-30T20:53:36.474934</dc:date>
    <dc:format>image/svg+xml</dc:format>
    <dc:creator>
     <cc:Agent>
      <dc:title>Matplotlib v3.3.4, https://matplotlib.org/</dc:title>
     </cc:Agent>
    </dc:creator>
   </cc:Work>
  </rdf:RDF>
 </metadata>
 <defs>
  <style type="text/css">*{stroke-linecap:butt;stroke-linejoin:round;}</style>
 </defs>
 <g id="figure_1">
  <g id="patch_1">
   <path d="M 0 291.6 
L 777.744 291.6 
L 777.744 0 
L 0 0 
z
" style="fill:#ffffff;"/>
  </g>
  <g id="axes_1">
   <g id="PolyCollection_1">
    <path clip-path="url(#p59cdb7b103)" d="M -515.397046 262.479877 
L -503.729058 262.479877 
L -492.061071 262.479877 
L -480.393083 262.479877 
L -468.725095 262.479877 
L -457.057108 262.479877 
L -445.38912 262.479877 
L -433.721132 262.479877 
L -422.053145 262.479877 
L -410.385157 262.479877 
L -398.717169 262.479877 
L -387.049182 262.479877 
L -375.381194 262.479877 
L -363.713206 262.479877 
L -352.045218 262.479877 
L -340.377231 262.479877 
L -328.709243 262.479877 
L -317.041255 262.479877 
L -305.373268 262.479877 
L -293.70528 262.479877 
L -282.037292 262.479877 
L -270.369305 262.479877 
L -258.701317 262.479877 
L -247.033329 262.479877 
L -235.365342 262.479877 
L -223.697354 262.479877 
L -212.029366 262.479877 
L -200.361378 262.479877 
L -188.693391 262.479877 
L -177.025403 262.479877 
L -165.357415 262.479877 
L -153.689428 262.479877 
L -142.02144 262.479877 
L -130.353452 262.479877 
L -118.685465 262.479877 
L -107.017477 262.479877 
L -95.349489 262.479877 
L -83.681502 262.479877 
L -72.013514 262.479877 
L -60.345526 262.479877 
L -48.677538 262.479877 
L -37.009551 262.479877 
L -25.341563 262.479877 
L -13.673575 262.479877 
L -2.005588 262.479877 
L 9.6624 262.479877 
L 21.330388 262.479877 
L 32.998375 262.479877 
L 44.666363 262.479877 
L 56.334351 262.479877 
L 68.002338 262.479877 
L 79.670326 262.479877 
L 91.338314 262.479877 
L 103.006302 262.479877 
L 114.674289 262.479877 
L 126.342277 262.479877 
L 138.010265 262.479877 
L 149.678252 262.479877 
L 161.34624 262.479877 
L 173.014228 262.479877 
L 184.682215 262.479877 
L 196.350203 262.479877 
L 208.018191 262.479877 
L 219.686178 262.479877 
L 231.354166 262.479877 
L 243.022154 262.479877 
L 254.690142 262.479877 
L 266.358129 262.479877 
L 278.026117 262.479877 
L 289.694105 262.479877 
L 301.362092 262.479877 
L 313.03008 262.479877 
L 324.698068 262.479877 
L 336.366055 262.479877 
L 348.034043 262.479877 
L 359.702031 262.479877 
L 371.370018 262.479877 
L 383.038006 262.479877 
L 394.705994 262.479877 
L 406.373982 262.479877 
L 418.041969 262.479877 
L 429.709957 262.479877 
L 441.377945 262.479877 
L 453.045932 262.479877 
L 464.71392 262.479877 
L 476.381908 262.479877 
L 488.049895 262.479877 
L 499.717883 262.479877 
L 511.385871 262.479877 
L 523.053858 262.479877 
L 534.721846 262.479877 
L 546.389834 262.479877 
L 558.057822 262.479877 
L 569.725809 262.479877 
L 581.393797 262.479877 
L 593.061785 262.479877 
L 604.729772 262.479877 
L 616.39776 262.479877 
L 628.065748 262.479877 
L 639.733735 262.479877 
L 651.401723 262.479877 
L 663.069711 262.479877 
L 674.737698 262.479877 
L 686.405686 262.479877 
L 698.073674 262.479877 
L 709.741662 262.479877 
L 721.409649 262.479877 
L 733.077637 262.479877 
L 744.745625 262.479877 
L 756.413612 262.479877 
L 768.0816 262.479877 
L 779.749588 262.479877 
L 791.417575 262.479877 
L 803.085563 262.479877 
L 814.753551 262.479877 
L 826.421538 262.479877 
L 838.089526 262.479877 
L 849.757514 262.479877 
L 861.425502 262.479877 
L 873.093489 262.479877 
L 884.761477 262.479877 
L 896.429465 262.479877 
L 908.097452 262.479877 
L 919.76544 262.479877 
L 931.433428 262.479877 
L 943.101415 262.479877 
L 954.769403 262.479877 
L 966.437391 262.479877 
L 978.105378 262.479877 
L 989.773366 262.479877 
L 1001.441354 262.479877 
L 1013.109342 262.479877 
L 1024.777329 262.479877 
L 1036.445317 262.479877 
L 1048.113305 262.479877 
L 1059.781292 262.479877 
L 1071.44928 262.479877 
L 1083.117268 262.479877 
L 1094.785255 262.479877 
L 1106.453243 262.479877 
L 1118.121231 262.479877 
L 1129.789218 262.479877 
L 1141.457206 262.479877 
L 1153.125194 262.479877 
L 1164.793182 262.479877 
L 1176.461169 262.479877 
L 1188.129157 262.479877 
L 1199.797145 262.479877 
L 1211.465132 262.479877 
L 1223.13312 262.479877 
L 1234.801108 262.479877 
L 1246.469095 262.479877 
L 1258.137083 262.479877 
L 1269.805071 262.479877 
L 1281.473058 262.479877 
L 1293.141046 262.479877 
L 1304.809034 262.479877 
L 1316.477022 262.479877 
L 1328.145009 262.479877 
L 1339.812997 262.479877 
L 1351.480985 262.479877 
L 1363.148972 262.479877 
L 1374.81696 262.479877 
L 1386.484948 262.479877 
L 1398.152935 262.479877 
L 1409.820923 262.479877 
L 1421.488911 262.479877 
L 1433.156898 262.479877 
L 1444.824886 262.479877 
L 1456.492874 262.479877 
L 1468.160862 262.479877 
L 1479.828849 262.479877 
L 1491.496837 262.479877 
L 1503.164825 262.479877 
L 1514.832812 262.479877 
L 1526.5008 262.479877 
L 1538.168788 262.479877 
L 1549.836775 262.479877 
L 1561.504763 262.479877 
L 1573.172751 262.479877 
L 1584.840738 262.479877 
L 1596.508726 262.479877 
L 1608.176714 262.479877 
L 1619.844702 262.479877 
L 1631.512689 262.479877 
L 1643.180677 262.479877 
L 1654.848665 262.479877 
L 1666.516652 262.479877 
L 1678.18464 262.479877 
L 1689.852628 262.479877 
L 1701.520615 262.479877 
L 1713.188603 262.479877 
L 1724.856591 262.479877 
L 1736.524578 262.479877 
L 1748.192566 262.479877 
L 1759.860554 262.479877 
L 1771.528542 262.479877 
L 1783.196529 262.479877 
L 1794.864517 262.479877 
L 1806.532505 262.479877 
L 1818.200492 262.479877 
L 1829.86848 262.479877 
L 1841.536468 262.479877 
L 1853.204455 262.479877 
L 1864.872443 262.479877 
L 1876.540431 262.479877 
L 1888.208418 262.479877 
L 1899.876406 262.479877 
L 1911.544394 262.479877 
L 1923.212382 262.479877 
L 1923.212382 145.8 
L 1911.544394 145.8 
L 1899.876406 145.8 
L 1888.208418 145.8 
L 1876.540431 145.8 
L 1864.872443 145.8 
L 1853.204455 145.8 
L 1841.536468 145.8 
L 1829.86848 145.8 
L 1818.200492 145.8 
L 1806.532505 145.8 
L 1794.864517 145.8 
L 1783.196529 145.8 
L 1771.528542 145.8 
L 1759.860554 145.8 
L 1748.192566 145.8 
L 1736.524578 145.8 
L 1724.856591 145.8 
L 1713.188603 145.8 
L 1701.520615 145.8 
L 1689.852628 145.8 
L 1678.18464 145.8 
L 1666.516652 145.8 
L 1654.848665 145.8 
L 1643.180677 145.8 
L 1631.512689 145.8 
L 1619.844702 145.8 
L 1608.176714 145.8 
L 1596.508726 145.8 
L 1584.840738 145.8 
L 1573.172751 145.8 
L 1561.504763 145.8 
L 1549.836775 145.8 
L 1538.168788 145.8 
L 1526.5008 145.8 
L 1514.832812 145.8 
L 1503.164825 145.8 
L 1491.496837 145.8 
L 1479.828849 145.8 
L 1468.160862 145.8 
L 1456.492874 145.8 
L 1444.824886 145.8 
L 1433.156898 145.8 
L 1421.488911 145.8 
L 1409.820923 145.8 
L 1398.152935 145.8 
L 1386.484948 145.8 
L 1374.81696 145.8 
L 1363.148972 145.8 
L 1351.480985 145.8 
L 1339.812997 145.8 
L 1328.145009 145.8 
L 1316.477022 145.8 
L 1304.809034 145.8 
L 1293.141046 145.8 
L 1281.473058 145.8 
L 1269.805071 145.8 
L 1258.137083 145.8 
L 1246.469095 145.8 
L 1234.801108 145.8 
L 1223.13312 145.8 
L 1211.465132 145.8 
L 1199.797145 145.8 
L 1188.129157 145.8 
L 1176.461169 145.8 
L 1164.793182 145.8 
L 1153.125194 145.8 
L 1141.457206 145.8 
L 1129.789218 145.8 
L 1118.121231 145.8 
L 1106.453243 145.8 
L 1094.785255 145.8 
L 1083.117268 145.8 
L 1071.44928 145.8 
L 1059.781292 145.8 
L 1048.113305 145.8 
L 1036.445317 145.8 
L 1024.777329 145.8 
L 1013.109342 145.8 
L 1001.441354 145.8 
L 989.773366 145.8 
L 978.105378 145.8 
L 966.437391 145.8 
L 954.769403 145.8 
L 943.101415 145.8 
L 931.433428 145.8 
L 919.76544 145.8 
L 908.097452 145.8 
L 896.429465 145.8 
L 884.761477 145.8 
L 873.093489 145.8 
L 861.425502 145.8 
L 849.757514 145.8 
L 838.089526 145.8 
L 826.421538 145.8 
L 814.753551 145.8 
L 803.085563 145.8 
L 791.417575 145.8 
L 779.749588 145.8 
L 768.0816 145.8 
L 756.413612 145.8 
L 744.745625 145.8 
L 733.077637 145.8 
L 721.409649 145.8 
L 709.741662 145.8 
L 698.073674 145.8 
L 686.405686 145.8 
L 674.737698 145.8 
L 663.069711 145.8 
L 651.401723 145.8 
L 639.733735 145.8 
L 628.065748 145.8 
L 616.39776 145.8 
L 604.729772 145.8 
L 593.061785 145.8 
L 581.393797 145.8 
L 569.725809 145.8 
L 558.057822 145.8 
L 546.389834 145.8 
L 534.721846 145.8 
L 523.053858 145.8 
L 511.385871 145.8 
L 499.717883 145.8 
L 488.049895 145.8 
L 476.381908 145.8 
L 464.71392 145.8 
L 453.045932 145.8 
L 441.377945 145.8 
L 429.709957 145.8 
L 418.041969 145.8 
L 406.373982 145.8 
L 394.705994 145.8 
L 383.038006 145.8 
L 371.370018 145.8 
L 359.702031 145.8 
L 348.034043 145.8 
L 336.366055 145.8 
L 324.698068 145.8 
L 313.03008 145.8 
L 301.362092 145.8 
L 289.694105 145.8 
L 278.026117 145.8 
L 266.358129 145.8 
L 254.690142 145.8 
L 243.022154 145.8 
L 231.354166 145.8 
L 219.686178 145.8 
L 208.018191 145.8 
L 196.350203 145.8 
L 184.682215 145.8 
L 173.014228 145.8 
L 161.34624 145.8 
L 149.678252 145.8 
L 138.010265 145.8 
L 126.342277 145.8 
L 114.674289 145.8 
L 103.006302 145.8 
L 91.338314 145.8 
L 79.670326 145.8 
L 68.002338 145.8 
L 56.334351 145.8 
L 44.666363 145.8 
L 32.998375 145.8 
L 21.330388 145.8 
L 9.6624 145.8 
L -2.005588 145.8 
L -13.673575 145.8 
L -25.341563 145.8 
L -37.009551 145.8 
L -48.677538 145.8 
L -60.345526 145.8 
L -72.013514 145.8 
L -83.681502 145.8 
L -95.349489 145.8 
L -107.017477 145.8 
L -118.685465 145.8 
L -130.353452 145.8 
L -142.02144 145.8 
L -153.689428 145.8 
L -165.357415 145.8 
L -177.025403 145.8 
L -188.693391 145.8 
L -200.361378 145.8 
L -212.029366 145.8 
L -223.697354 145.8 
L -235.365342 145.8 
L -247.033329 145.8 
L -258.701317 145.8 
L -270.369305 145.8 
L -282.037292 145.8 
L -293.70528 145.8 
L -305.373268 145.8 
L -317.041255 145.8 
L -328.709243 145.8 
L -340.377231 145.8 
L -352.045218 145.8 
L -363.713206 145.8 
L -375.381194 145.8 
L -387.049182 145.8 
L -398.717169 145.8 
L -410.385157 145.8 
L -422.053145 145.8 
L -433.721132 145.8 
L -445.38912 145.8 
L -457.057108 145.8 
L -468.725095 145.8 
L -480.393083 145.8 
L -492.061071 145.8 
L -503.729058 145.8 
L -515.397046 145.8 
z
" style="fill:#c7c7c7;"/>
    <path clip-path="url(#p59cdb7b103)" d="M -515.397046 145.8 
L -503.729058 145.8 
L -492.061071 145.8 
L -480.393083 145.8 
L -468.725095 145.8 
L -457.057108 145.8 
L -445.38912 145.8 
L -433.721132 145.8 
L -422.053145 145.8 
L -410.385157 145.8 
L -398.717169 145.8 
L -387.049182 145.8 
L -375.381194 145.8 
L -363.713206 145.8 
L -352.045218 145.8 
L -340.377231 145.8 
L -328.709243 145.8 
L -317.041255 145.8 
L -305.373268 145.8 
L -293.70528 145.8 
L -282.037292 145.8 
L -270.369305 145.8 
L -258.701317 145.8 
L -247.033329 145.8 
L -235.365342 145.8 
L -223.697354 145.8 
L -212.029366 145.8 
L -200.361378 145.8 
L -188.693391 145.8 
L -177.025403 145.8 
L -165.357415 145.8 
L -153.689428 145.8 
L -142.02144 145.8 
L -130.353452 145.8 
L -118.685465 145.8 
L -107.017477 145.8 
L -95.349489 145.8 
L -83.681502 145.8 
L -72.013514 145.8 
L -60.345526 145.8 
L -48.677538 145.8 
L -37.009551 145.8 
L -25.341563 145.8 
L -13.673575 145.8 
L -2.005588 145.8 
L 9.6624 145.8 
L 21.330388 145.8 
L 32.998375 145.8 
L 44.666363 145.8 
L 56.334351 145.8 
L 68.002338 145.8 
L 79.670326 145.8 
L 91.338314 145.8 
L 103.006302 145.8 
L 114.674289 145.8 
L 126.342277 145.8 
L 138.010265 145.8 
L 149.678252 145.8 
L 161.34624 145.8 
L 173.014228 145.8 
L 184.682215 145.8 
L 196.350203 145.8 
L 208.018191 145.8 
L 219.686178 145.8 
L 231.354166 145.8 
L 243.022154 145.8 
L 254.690142 145.8 
L 266.358129 145.8 
L 278.026117 145.8 
L 289.694105 145.8 
L 301.362092 145.8 
L 313.03008 145.8 
L 324.698068 145.8 
L 336.366055 145.8 
L 348.034043 145.8 
L 359.702031 145.8 
L 371.370018 145.8 
L 383.038006 145.8 
L 394.705994 145.8 
L 406.373982 145.8 
L 418.041969 145.8 
L 429.709957 145.8 
L 441.377945 145.8 
L 453.045932 145.8 
L 464.71392 145.8 
L 476.381908 145.8 
L 488.049895 145.8 
L 499.717883 145.8 
L 511.385871 145.8 
L 523.053858 145.8 
L 534.721846 145.8 
L 546.389834 145.8 
L 558.057822 145.8 
L 569.725809 145.8 
L 581.393797 145.8 
L 593.061785 145.8 
L 604.729772 145.8 
L 616.39776 145.8 
L 628.065748 145.8 
L 639.733735 145.8 
L 651.401723 145.8 
L 663.069711 145.8 
L 674.737698 145.8 
L 686.405686 145.8 
L 698.073674 145.8 
L 709.741662 145.8 
L 721.409649 145.8 
L 733.077637 145.8 
L 744.745625 145.8 
L 756.413612 145.8 
L 768.0816 145.8 
L 779.749588 145.8 
L 791.417575 145.8 
L 803.085563 145.8 
L 814.753551 145.8 
L 826.421538 145.8 
L 838.089526 145.8 
L 849.757514 145.8 
L 861.425502 145.8 
L 873.093489 145.8 
L 884.761477 145.8 
L 896.429465 145.8 
L 908.097452 145.8 
L 919.76544 145.8 
L 931.433428 145.8 
L 943.101415 145.8 
L 954.769403 145.8 
L 966.437391 145.8 
L 978.105378 145.8 
L 989.773366 145.8 
L 1001.441354 145.8 
L 1013.109342 145.8 
L 1024.777329 145.8 
L 1036.445317 145.8 
L 1048.113305 145.8 
L 1059.781292 145.8 
L 1071.44928 145.8 
L 1083.117268 145.8 
L 1094.785255 145.8 
L 1106.453243 145.8 
L 1118.121231 145.8 
L 1129.789218 145.8 
L 1141.457206 145.8 
L 1153.125194 145.8 
L 1164.793182 145.8 
L 1176.461169 145.8 
L 1188.129157 145.8 
L 1199.797145 145.8 
L 1211.465132 145.8 
L 1223.13312 145.8 
L 1234.801108 145.8 
L 1246.469095 145.8 
L 1258.137083 145.8 
L 1269.805071 145.8 
L 1281.473058 145.8 
L 1293.141046 145.8 
L 1304.809034 145.8 
L 1316.477022 145.8 
L 1328.145009 145.8 
L 1339.812997 145.8 
L 1351.480985 145.8 
L 1363.148972 145.8 
L 1374.81696 145.8 
L 1386.484948 145.8 
L 1398.152935 145.8 
L 1409.820923 145.8 
L 1421.488911 145.8 
L 1433.156898 145.8 
L 1444.824886 145.8 
L 1456.492874 145.8 
L 1468.160862 145.8 
L 1479.828849 145.8 
L 1491.496837 145.8 
L 1503.164825 145.8 
L 1514.832812 145.8 
L 1526.5008 145.8 
L 1538.168788 145.8 
L 1549.836775 145.8 
L 1561.504763 145.8 
L 1573.172751 145.8 
L 1584.840738 145.8 
L 1596.508726 145.8 
L 1608.176714 145.8 
L 1619.844702 145.8 
L 1631.512689 145.8 
L 1643.180677 145.8 
L 1654.848665 145.8 
L 1666.516652 145.8 
L 1678.18464 145.8 
L 1689.852628 145.8 
L 1701.520615 145.8 
L 1713.188603 145.8 
L 1724.856591 145.8 
L 1736.524578 145.8 
L 1748.192566 145.8 
L 1759.860554 145.8 
L 1771.528542 145.8 
L 1783.196529 145.8 
L 1794.864517 145.8 
L 1806.532505 145.8 
L 1818.200492 145.8 
L 1829.86848 145.8 
L 1841.536468 145.8 
L 1853.204455 145.8 
L 1864.872443 145.8 
L 1876.540431 145.8 
L 1888.208418 145.8 
L 1899.876406 145.8 
L 1911.544394 145.8 
L 1923.212382 145.8 
L 1923.212382 29.120123 
L 1911.544394 29.120123 
L 1899.876406 29.120123 
L 1888.208418 29.120123 
L 1876.540431 29.120123 
L 1864.872443 29.120123 
L 1853.204455 29.120123 
L 1841.536468 29.120123 
L 1829.86848 29.120123 
L 1818.200492 29.120123 
L 1806.532505 29.120123 
L 1794.864517 29.120123 
L 1783.196529 29.120123 
L 1771.528542 29.120123 
L 1759.860554 29.120123 
L 1748.192566 29.120123 
L 1736.524578 29.120123 
L 1724.856591 29.120123 
L 1713.188603 29.120123 
L 1701.520615 29.120123 
L 1689.852628 29.120123 
L 1678.18464 29.120123 
L 1666.516652 29.120123 
L 1654.848665 29.120123 
L 1643.180677 29.120123 
L 1631.512689 29.120123 
L 1619.844702 29.120123 
L 1608.176714 29.120123 
L 1596.508726 29.120123 
L 1584.840738 29.120123 
L 1573.172751 29.120123 
L 1561.504763 29.120123 
L 1549.836775 29.120123 
L 1538.168788 29.120123 
L 1526.5008 29.120123 
L 1514.832812 29.120123 
L 1503.164825 29.120123 
L 1491.496837 29.120123 
L 1479.828849 29.120123 
L 1468.160862 29.120123 
L 1456.492874 29.120123 
L 1444.824886 29.120123 
L 1433.156898 29.120123 
L 1421.488911 29.120123 
L 1409.820923 29.120123 
L 1398.152935 29.120123 
L 1386.484948 29.120123 
L 1374.81696 29.120123 
L 1363.148972 29.120123 
L 1351.480985 29.120123 
L 1339.812997 29.120123 
L 1328.145009 29.120123 
L 1316.477022 29.120123 
L 1304.809034 29.120123 
L 1293.141046 29.120123 
L 1281.473058 29.120123 
L 1269.805071 29.120123 
L 1258.137083 29.120123 
L 1246.469095 29.120123 
L 1234.801108 29.120123 
L 1223.13312 29.120123 
L 1211.465132 29.120123 
L 1199.797145 29.120123 
L 1188.129157 29.120123 
L 1176.461169 29.120123 
L 1164.793182 29.120123 
L 1153.125194 29.120123 
L 1141.457206 29.120123 
L 1129.789218 29.120123 
L 1118.121231 29.120123 
L 1106.453243 29.120123 
L 1094.785255 29.120123 
L 1083.117268 29.120123 
L 1071.44928 29.120123 
L 1059.781292 29.120123 
L 1048.113305 29.120123 
L 1036.445317 29.120123 
L 1024.777329 29.120123 
L 1013.109342 29.120123 
L 1001.441354 29.120123 
L 989.773366 29.120123 
L 978.105378 29.120123 
L 966.437391 29.120123 
L 954.769403 29.120123 
L 943.101415 29.120123 
L 931.433428 29.120123 
L 919.76544 29.120123 
L 908.097452 29.120123 
L 896.429465 29.120123 
L 884.761477 29.120123 
L 873.093489 29.120123 
L 861.425502 29.120123 
L 849.757514 29.120123 
L 838.089526 29.120123 
L 826.421538 29.120123 
L 814.753551 29.120123 
L 803.085563 29.120123 
L 791.417575 29.120123 
L 779.749588 29.120123 
L 768.0816 29.120123 
L 756.413612 29.120123 
L 744.745625 29.120123 
L 733.077637 29.120123 
L 721.409649 29.120123 
L 709.741662 29.120123 
L 698.073674 29.120123 
L 686.405686 29.120123 
L 674.737698 29.120123 
L 663.069711 29.120123 
L 651.401723 29.120123 
L 639.733735 29.120123 
L 628.065748 29.120123 
L 616.39776 29.120123 
L 604.729772 29.120123 
L 593.061785 29.120123 
L 581.393797 29.120123 
L 569.725809 29.120123 
L 558.057822 29.120123 
L 546.389834 29.120123 
L 534.721846 29.120123 
L 523.053858 29.120123 
L 511.385871 29.120123 
L 499.717883 29.120123 
L 488.049895 29.120123 
L 476.381908 29.120123 
L 464.71392 29.120123 
L 453.045932 29.120123 
L 441.377945 29.120123 
L 429.709957 29.120123 
L 418.041969 29.120123 
L 406.373982 29.120123 
L 394.705994 29.120123 
L 383.038006 29.120123 
L 371.370018 29.120123 
L 359.702031 29.120123 
L 348.034043 29.120123 
L 336.366055 29.120123 
L 324.698068 29.120123 
L 313.03008 29.120123 
L 301.362092 29.120123 
L 289.694105 29.120123 
L 278.026117 29.120123 
L 266.358129 29.120123 
L 254.690142 29.120123 
L 243.022154 29.120123 
L 231.354166 29.120123 
L 219.686178 29.120123 
L 208.018191 29.120123 
L 196.350203 29.120123 
L 184.682215 29.120123 
L 173.014228 29.120123 
L 161.34624 29.120123 
L 149.678252 29.120123 
L 138.010265 29.120123 
L 126.342277 29.120123 
L 114.674289 29.120123 
L 103.006302 29.120123 
L 91.338314 29.120123 
L 79.670326 29.120123 
L 68.002338 29.120123 
L 56.334351 29.120123 
L 44.666363 29.120123 
L 32.998375 29.120123 
L 21.330388 29.120123 
L 9.6624 29.120123 
L -2.005588 29.120123 
L -13.673575 29.120123 
L -25.341563 29.120123 
L -37.009551 29.120123 
L -48.677538 29.120123 
L -60.345526 29.120123 
L -72.013514 29.120123 
L -83.681502 29.120123 
L -95.349489 29.120123 
L -107.017477 29.120123 
L -118.685465 29.120123 
L -130.353452 29.120123 
L -142.02144 29.120123 
L -153.689428 29.120123 
L -165.357415 29.120123 
L -177.025403 29.120123 
L -188.693391 29.120123 
L -200.361378 29.120123 
L -212.029366 29.120123 
L -223.697354 29.120123 
L -235.365342 29.120123 
L -247.033329 29.120123 
L -258.701317 29.120123 
L -270.369305 29.120123 
L -282.037292 29.120123 
L -293.70528 29.120123 
L -305.373268 29.120123 
L -317.041255 29.120123 
L -328.709243 29.120123 
L -340.377231 29.120123 
L -352.045218 29.120123 
L -363.713206 29.120123 
L -375.381194 29.120123 
L -387.049182 29.120123 
L -398.717169 29.120123 
L -410.385157 29.120123 
L -422.053145 29.120123 
L -433.721132 29.120123 
L -445.38912 29.120123 
L -457.057108 29.120123 
L -468.725095 29.120123 
L -480.393083 29.120123 
L -492.061071 29.120123 
L -503.729058 29.120123 
L -515.397046 29.120123 
z
" style="fill:#c7c7c7;"/>
   </g>
   <g id="PathCollection_1"/>
   <g id="PathCollection_2">
    <path clip-path="url(#p59cdb7b103)" d="M -515.397046 212.890929 
L -497.895065 204.139938 
L -515.397046 195.388948 
z
" style="fill:#dddddd;stroke:#dddddd;stroke-width:0.5;"/>
    <path clip-path="url(#p59cdb7b103)" d="M -515.397046 96.211052 
L -497.895065 87.460062 
L -515.397046 78.709071 
z
" style="fill:#dddddd;stroke:#dddddd;stroke-width:0.5;"/>
   </g>
   <g id="PathCollection_3">
    <path clip-path="url(#p59cdb7b103)" d="M -1 262.479877 
L 778.744 262.479877 
L 778.744 262.479877 
" style="fill:none;stroke:#555555;stroke-width:0.5;"/>
    <path clip-path="url(#p59cdb7b103)" d="M -1 145.8 
L 778.744 145.8 
L 778.744 145.8 
" style="fill:none;stroke:#555555;stroke-width:0.5;"/>
   </g>
   <g id="PathCollection_4">
    <path clip-path="url(#p59cdb7b103)" d="M -1 145.8 
L 778.744 145.8 
L 778.744 145.8 
" style="fill:none;stroke:#555555;stroke-width:0.5;"/>
    <path clip-path="url(#p59cdb7b103)" d="M -1 29.120123 
L 778.744 29.120123 
L 778.744 29.120123 
" style="fill:none;stroke:#555555;stroke-width:0.5;"/>
   </g>
   <g id="PatchCollection_1">
    <path clip-path="url(#p59cdb7b103)" d="M 301.362092 156.767908 
C 304.456479 156.767908 307.424544 155.538496 309.612606 153.350434 
C 311.800667 151.162372 313.03008 148.194307 313.03008 145.099921 
C 313.03008 142.005534 311.800667 139.037469 309.612606 136.849408 
C 307.424544 134.661346 304.456479 133.431933 301.362092 133.431933 
C 298.267706 133.431933 295.299641 134.661346 293.111579 136.849408 
C 290.923517 139.037469 289.694105 142.005534 289.694105 145.099921 
C 289.694105 148.194307 290.923517 151.162372 293.111579 153.350434 
C 295.299641 155.538496 298.267706 156.767908 301.362092 156.767908 
z
" style="fill:#008000;stroke:#008000;"/>
    <path clip-path="url(#p59cdb7b103)" d="M 395.853891 143.209833 
L 354.137549 158.048657 
L 353.950874 148.716134 
L 301.45543 149.766182 
L 301.268755 140.433659 
L 353.764198 139.38361 
L 353.577523 130.051087 
z
" style="fill:#008000;stroke:#008000;"/>
    <path clip-path="url(#p59cdb7b103)" d="M 651.401723 155.13439 
L 651.401723 136.46561 
L 709.741662 136.46561 
L 709.741662 155.13439 
z
" style="fill:#f1b514;stroke:#302404;stroke-width:0.5;"/>
    <path clip-path="url(#p59cdb7b103)" d="M 433.492661 153.406119 
L 432.079608 137.747947 
L 452.996984 135.860284 
L 454.410037 151.518455 
z
" style="fill:#d95558;stroke:#831d20;stroke-width:0.5;"/>
    <path clip-path="url(#p59cdb7b103)" d="M 549.423511 152.494102 
L 549.423511 136.7723 
L 570.425888 136.7723 
L 570.425888 152.494102 
z
" style="fill:#d95558;stroke:#831d20;stroke-width:0.5;"/>
    <path clip-path="url(#p59cdb7b103)" d="M 607.763449 104.655353 
L 607.763449 88.933551 
L 628.765827 88.933551 
L 628.765827 104.655353 
z
" style="fill:#d95558;stroke:#831d20;stroke-width:0.5;"/>
    <path clip-path="url(#p59cdb7b103)" d="M 301.362092 150.933915 
C 302.909286 150.933915 304.393318 150.319208 305.487349 149.225177 
C 306.58138 148.131147 307.196086 146.647114 307.196086 145.099921 
C 307.196086 143.552727 306.58138 142.068695 305.487349 140.974664 
C 304.393318 139.880633 302.909286 139.265927 301.362092 139.265927 
C 299.814899 139.265927 298.330867 139.880633 297.236836 140.974664 
C 296.142805 142.068695 295.528098 143.552727 295.528098 145.099921 
C 295.528098 146.647114 296.142805 148.131147 297.236836 149.225177 
C 298.330867 150.319208 299.814899 150.933915 301.362092 150.933915 
z
" style="fill:#1d7eea;stroke:#00478f;stroke-width:0.5;"/>
   </g>
   <g id="line2d_1">
    <path clip-path="url(#p59cdb7b103)" d="M 301.362092 145.099921 
" style="fill:none;stroke:#ffd700;stroke-linecap:square;stroke-width:2;"/>
   </g>
   <g id="line2d_2">
    <path clip-path="url(#p59cdb7b103)" d="M 301.362092 145.099921 
L 311.863281 144.889897 
L 322.36447 144.679873 
L 332.865659 144.469849 
L 343.366848 144.259826 
L 353.868037 144.049802 
" style="fill:none;stroke:#ffd700;stroke-linecap:square;stroke-width:2;"/>
   </g>
   <g id="line2d_3">
    <path clip-path="url(#p59cdb7b103)" d="M 301.362092 145.099921 
L 311.863281 144.889897 
L 322.362684 144.606561 
L 332.853645 144.103157 
L 343.320223 143.232746 
L 353.730887 141.84881 
" style="fill:none;stroke:#ffd700;stroke-linecap:square;stroke-width:2;"/>
   </g>
   <g id="line2d_4">
    <path clip-path="url(#p59cdb7b103)" d="M 301.362092 145.099921 
L 311.863281 144.889897 
L 322.365617 144.753198 
L 332.868316 144.836729 
L 343.361327 145.287948 
L 353.819001 146.254518 
" style="fill:none;stroke:#ffd700;stroke-linecap:square;stroke-width:2;"/>
   </g>
   <g id="line2d_5">
    <path clip-path="url(#p59cdb7b103)" d="M 353.868037 144.049802 
L 364.369226 143.839778 
L 374.870415 143.629754 
L 385.371604 143.419731 
L 395.872793 143.209707 
L 406.373982 142.999683 
" style="fill:none;stroke:#ffd700;stroke-linecap:square;stroke-width:2;"/>
   </g>
   <g id="line2d_6">
    <path clip-path="url(#p59cdb7b103)" d="M 353.868037 144.049802 
L 364.369226 143.839778 
L 374.868628 143.556442 
L 385.35959 143.053038 
L 395.826168 142.182627 
L 406.236832 140.798691 
" style="fill:none;stroke:#ffd700;stroke-linecap:square;stroke-width:2;"/>
   </g>
   <g id="line2d_7">
    <path clip-path="url(#p59cdb7b103)" d="M 353.868037 144.049802 
L 364.369226 143.839778 
L 374.871561 143.703079 
L 385.374261 143.78661 
L 395.867272 144.237829 
L 406.324946 145.204399 
" style="fill:none;stroke:#ffd700;stroke-linecap:square;stroke-width:2;"/>
   </g>
   <g id="line2d_8">
    <path clip-path="url(#p59cdb7b103)" d="M 406.373982 142.999683 
L 416.87517 142.789659 
L 427.376359 142.579635 
L 437.877548 142.369612 
L 448.378737 142.159588 
L 458.879926 141.949564 
" style="fill:none;stroke:#ffd700;stroke-dasharray:7.4,3.2;stroke-dashoffset:0;stroke-width:2;"/>
   </g>
   <g id="line2d_9">
    <path clip-path="url(#p59cdb7b103)" d="M 406.373982 142.999683 
L 416.87517 142.789659 
L 427.374573 142.506323 
L 437.865534 142.002919 
L 448.332112 141.132508 
L 458.742776 139.748572 
" style="fill:none;stroke:#ffd700;stroke-dasharray:7.4,3.2;stroke-dashoffset:0;stroke-width:2;"/>
   </g>
   <g id="line2d_10">
    <path clip-path="url(#p59cdb7b103)" d="M 406.373982 142.999683 
L 416.87517 142.789659 
L 427.377506 142.65296 
L 437.880206 142.736491 
L 448.373216 143.18771 
L 458.830891 144.15428 
" style="fill:none;stroke:#ffd700;stroke-dasharray:7.4,3.2;stroke-dashoffset:0;stroke-width:2;"/>
   </g>
   <g id="line2d_11">
    <path clip-path="url(#p59cdb7b103)" d="M 353.819001 146.254518 
L 364.19157 147.882492 
L 374.440473 150.165712 
L 384.565158 152.950227 
L 394.586443 156.08765 
L 404.539926 159.434559 
" style="fill:none;stroke:#ffd700;stroke-linecap:square;stroke-width:2;"/>
   </g>
   <g id="line2d_12">
    <path clip-path="url(#p59cdb7b103)" d="M 353.819001 146.254518 
L 364.19157 147.882492 
L 374.423124 150.239564 
L 384.462479 153.313945 
L 394.259416 157.090254 
L 403.764926 161.5496 
" style="fill:none;stroke:#ffd700;stroke-linecap:square;stroke-width:2;"/>
   </g>
   <g id="line2d_13">
    <path clip-path="url(#p59cdb7b103)" d="M 406.324946 145.204399 
L 416.697515 146.832373 
L 426.946418 149.115593 
L 437.071102 151.900108 
L 447.092387 155.037531 
L 457.04587 158.38444 
" style="fill:none;stroke:#ffd700;stroke-dasharray:7.4,3.2;stroke-dashoffset:0;stroke-width:2;"/>
   </g>
   <g id="line2d_14">
    <path clip-path="url(#p59cdb7b103)" d="M 406.324946 145.204399 
L 416.697515 146.832373 
L 426.929068 149.189446 
L 436.968424 152.263826 
L 446.765361 156.040135 
L 456.27087 160.499482 
" style="fill:none;stroke:#ffd700;stroke-dasharray:7.4,3.2;stroke-dashoffset:0;stroke-width:2;"/>
   </g>
   <g id="line2d_15">
    <path clip-path="url(#p59cdb7b103)" d="M 353.730887 141.84881 
L 364.030057 139.807346 
L 374.179458 137.116106 
L 384.184693 133.928938 
L 394.072499 130.39328 
L 403.884179 126.651015 
" style="fill:none;stroke:#ffd700;stroke-linecap:square;stroke-width:2;"/>
   </g>
   <g id="line2d_16">
    <path clip-path="url(#p59cdb7b103)" d="M 353.730887 141.84881 
L 364.030057 139.807346 
L 374.159169 137.043005 
L 384.067552 133.569617 
L 393.70564 129.404556 
L 403.02522 124.568657 
" style="fill:none;stroke:#ffd700;stroke-linecap:square;stroke-width:2;"/>
   </g>
   <g id="line2d_17">
    <path clip-path="url(#p59cdb7b103)" d="M 406.236832 140.798691 
L 416.536002 138.757227 
L 426.685403 136.065987 
L 436.690638 132.878819 
L 446.578443 129.343161 
L 456.390124 125.600896 
" style="fill:none;stroke:#ffd700;stroke-linecap:square;stroke-width:2;"/>
   </g>
   <g id="line2d_18">
    <path clip-path="url(#p59cdb7b103)" d="M 406.236832 140.798691 
L 416.536002 138.757227 
L 426.665114 135.992887 
L 436.573497 132.519498 
L 446.211585 128.354437 
L 455.531164 123.518538 
" style="fill:none;stroke:#ffd700;stroke-linecap:square;stroke-width:2;"/>
   </g>
   <g id="line2d_19">
    <path clip-path="url(#p59cdb7b103)" d="M 404.539926 159.434559 
L 414.469859 162.850903 
L 424.399791 166.267246 
L 434.329724 169.68359 
L 444.259657 173.099933 
L 454.18959 176.516277 
" style="fill:none;stroke:#ffd700;stroke-linecap:square;stroke-width:2;"/>
   </g>
   <g id="line2d_20">
    <path clip-path="url(#p59cdb7b103)" d="M 404.539926 159.434559 
L 414.469859 162.850903 
L 424.423341 166.197812 
L 434.444626 169.335235 
L 444.569311 172.11975 
L 454.818214 174.40297 
" style="fill:none;stroke:#ffd700;stroke-linecap:square;stroke-width:2;"/>
   </g>
   <g id="line2d_21">
    <path clip-path="url(#p59cdb7b103)" d="M 404.539926 159.434559 
L 414.469859 162.850903 
L 424.375636 166.336472 
L 434.205974 170.028901 
L 443.900694 174.063151 
L 453.384909 178.569011 
" style="fill:none;stroke:#ffd700;stroke-linecap:square;stroke-width:2;"/>
   </g>
   <g id="line2d_22">
    <path clip-path="url(#p59cdb7b103)" d="M 403.764926 161.5496 
L 412.931457 166.669677 
L 421.755012 172.3616 
L 430.288398 178.480757 
L 438.602545 184.895158 
L 446.780524 191.482592 
" style="fill:none;stroke:#ffd700;stroke-linecap:square;stroke-width:2;"/>
   </g>
   <g id="line2d_23">
    <path clip-path="url(#p59cdb7b103)" d="M 403.764926 161.5496 
L 412.931457 166.669677 
L 421.713155 172.424871 
L 430.066091 178.786392 
L 437.948478 185.722417 
L 445.320887 193.19825 
" style="fill:none;stroke:#ffd700;stroke-linecap:square;stroke-width:2;"/>
   </g>
   <g id="line2d_24">
    <path clip-path="url(#p59cdb7b103)" d="M 403.884179 126.651015 
L 413.669552 122.840313 
L 423.454924 119.02961 
L 433.240297 115.218908 
L 443.02567 111.408206 
L 452.811042 107.597504 
" style="fill:none;stroke:#ffd700;stroke-linecap:square;stroke-width:2;"/>
   </g>
   <g id="line2d_25">
    <path clip-path="url(#p59cdb7b103)" d="M 403.884179 126.651015 
L 413.669552 122.840313 
L 423.42802 118.961406 
L 433.102837 114.878822 
L 442.628475 110.460113 
L 451.924917 105.57859 
" style="fill:none;stroke:#ffd700;stroke-linecap:square;stroke-width:2;"/>
   </g>
   <g id="line2d_26">
    <path clip-path="url(#p59cdb7b103)" d="M 403.884179 126.651015 
L 413.669552 122.840313 
L 423.481232 119.098047 
L 433.369038 115.56239 
L 443.374273 112.375222 
L 453.523674 109.683982 
" style="fill:none;stroke:#ffd700;stroke-linecap:square;stroke-width:2;"/>
   </g>
   <g id="line2d_27">
    <path clip-path="url(#p59cdb7b103)" d="M 456.390124 125.600896 
L 466.175496 121.790194 
L 475.960869 117.979492 
L 485.746242 114.168789 
L 495.531614 110.358087 
L 505.316987 106.547385 
" style="fill:none;stroke:#ffd700;stroke-linecap:square;stroke-width:2;"/>
   </g>
   <g id="line2d_28">
    <path clip-path="url(#p59cdb7b103)" d="M 456.390124 125.600896 
L 466.175496 121.790194 
L 475.933965 117.911287 
L 485.608782 113.828703 
L 495.13442 109.409994 
L 504.430862 104.528471 
" style="fill:none;stroke:#ffd700;stroke-linecap:square;stroke-width:2;"/>
   </g>
   <g id="line2d_29">
    <path clip-path="url(#p59cdb7b103)" d="M 456.390124 125.600896 
L 466.175496 121.790194 
L 475.987177 118.047928 
L 485.874983 114.512271 
L 495.880217 111.325103 
L 506.029618 108.633863 
" style="fill:none;stroke:#ffd700;stroke-linecap:square;stroke-width:2;"/>
   </g>
   <g id="line2d_30">
    <path clip-path="url(#p59cdb7b103)" d="M 403.02522 124.568657 
L 411.97967 119.086113 
L 420.568552 113.045895 
L 428.850411 106.590388 
L 436.901399 99.84864 
L 444.80941 92.939444 
" style="fill:none;stroke:#ffd700;stroke-linecap:square;stroke-width:2;"/>
   </g>
   <g id="line2d_31">
    <path clip-path="url(#p59cdb7b103)" d="M 403.02522 124.568657 
L 411.97967 119.086113 
L 420.524198 112.984348 
L 428.616059 106.293887 
L 436.214774 99.048198 
L 443.282332 91.283528 
" style="fill:none;stroke:#ffd700;stroke-linecap:square;stroke-width:2;"/>
   </g>
   <g id="line2d_32">
    <path clip-path="url(#p59cdb7b103)" d="M 455.531164 123.518538 
L 464.485615 118.035994 
L 473.074496 111.995776 
L 481.356355 105.540269 
L 489.407344 98.798522 
L 497.315355 91.889325 
" style="fill:none;stroke:#ffd700;stroke-linecap:square;stroke-width:2;"/>
   </g>
   <g id="line2d_33">
    <path clip-path="url(#p59cdb7b103)" d="M 455.531164 123.518538 
L 464.485615 118.035994 
L 473.030143 111.934229 
L 481.122003 105.243768 
L 488.720719 97.99808 
L 495.788277 90.233409 
" style="fill:none;stroke:#ffd700;stroke-linecap:square;stroke-width:2;"/>
   </g>
   <g id="line2d_34">
    <path clip-path="url(#p59cdb7b103)" d="M 454.818214 174.40297 
L 465.190783 176.030944 
L 475.646369 176.997293 
L 486.137283 177.448394 
L 496.637883 177.53188 
L 507.138118 177.39518 
" style="fill:none;stroke:#ffd700;stroke-linecap:square;stroke-width:2;"/>
   </g>
   <g id="line2d_35">
    <path clip-path="url(#p59cdb7b103)" d="M 454.818214 174.40297 
L 465.190783 176.030944 
L 475.652479 176.921676 
L 486.150967 177.070709 
L 496.633732 176.477298 
L 507.048332 175.144411 
" style="fill:none;stroke:#ffd700;stroke-linecap:square;stroke-width:2;"/>
   </g>
   <g id="line2d_36">
    <path clip-path="url(#p59cdb7b103)" d="M 454.18959 176.516277 
L 464.119523 179.93262 
L 474.049456 183.348963 
L 483.979388 186.765307 
L 493.909321 190.18165 
L 503.839254 193.597994 
" style="fill:none;stroke:#ffd700;stroke-linecap:square;stroke-width:2;"/>
   </g>
   <g id="line2d_37">
    <path clip-path="url(#p59cdb7b103)" d="M 454.18959 176.516277 
L 464.119523 179.93262 
L 474.073006 183.279529 
L 484.094291 186.416952 
L 494.218975 189.201468 
L 504.467878 191.484688 
" style="fill:none;stroke:#ffd700;stroke-linecap:square;stroke-width:2;"/>
   </g>
   <g id="line2d_38">
    <path clip-path="url(#p59cdb7b103)" d="M 454.18959 176.516277 
L 464.119523 179.93262 
L 474.0253 183.418189 
L 483.855638 187.110618 
L 493.550358 191.144868 
L 503.034573 195.650729 
" style="fill:none;stroke:#ffd700;stroke-linecap:square;stroke-width:2;"/>
   </g>
   <g id="line2d_39">
    <path clip-path="url(#p59cdb7b103)" d="M 507.048332 175.144411 
L 517.342669 173.078717 
L 527.485709 170.3636 
L 537.483416 167.152896 
L 547.362874 163.593981 
L 557.165721 159.828637 
" style="fill:none;stroke:#ffd700;stroke-linecap:square;stroke-width:2;"/>
   </g>
   <g id="line2d_40">
    <path clip-path="url(#p59cdb7b103)" d="M 507.048332 175.144411 
L 517.342669 173.078717 
L 527.465248 170.290548 
L 537.36543 166.793852 
L 546.99369 162.606122 
L 556.301864 157.748306 
" style="fill:none;stroke:#ffd700;stroke-linecap:square;stroke-width:2;"/>
   </g>
   <g id="line2d_41">
    <path clip-path="url(#p59cdb7b103)" d="M 507.138118 177.39518 
L 517.639307 177.185157 
L 528.140496 176.975133 
L 538.641685 176.765109 
L 549.142874 176.555085 
L 559.644063 176.345061 
" style="fill:none;stroke:#ffd700;stroke-linecap:square;stroke-width:2;"/>
   </g>
   <g id="line2d_42">
    <path clip-path="url(#p59cdb7b103)" d="M 507.138118 177.39518 
L 517.639307 177.185157 
L 528.13871 176.901821 
L 538.629671 176.398417 
L 549.096249 175.528006 
L 559.506913 174.144069 
" style="fill:none;stroke:#ffd700;stroke-linecap:square;stroke-width:2;"/>
   </g>
   <g id="line2d_43">
    <path clip-path="url(#p59cdb7b103)" d="M 507.138118 177.39518 
L 517.639307 177.185157 
L 528.141642 177.048458 
L 538.644342 177.131988 
L 549.137353 177.583208 
L 559.595027 178.549777 
" style="fill:none;stroke:#ffd700;stroke-linecap:square;stroke-width:2;"/>
   </g>
   <g id="line2d_44">
    <path clip-path="url(#p59cdb7b103)" d="M 557.165721 159.828637 
L 566.942099 155.994918 
L 576.718477 152.161199 
L 586.494855 148.327481 
L 596.271234 144.493762 
L 606.047612 140.660043 
" style="fill:none;stroke:#ffd700;stroke-linecap:square;stroke-width:2;"/>
   </g>
   <g id="line2d_45">
    <path clip-path="url(#p59cdb7b103)" d="M 557.165721 159.828637 
L 566.942099 155.994918 
L 576.691413 152.093058 
L 586.356596 147.987719 
L 595.871809 143.546606 
L 605.156738 138.64322 
" style="fill:none;stroke:#ffd700;stroke-linecap:square;stroke-width:2;"/>
   </g>
   <g id="line2d_46">
    <path clip-path="url(#p59cdb7b103)" d="M 557.165721 159.828637 
L 566.942099 155.994918 
L 576.744946 152.229574 
L 586.624404 148.670658 
L 596.622111 145.459955 
L 606.765151 142.744838 
" style="fill:none;stroke:#ffd700;stroke-linecap:square;stroke-width:2;"/>
   </g>
   <g id="line2d_47">
    <path clip-path="url(#p59cdb7b103)" d="M 559.506913 174.144069 
L 569.806083 172.102605 
L 579.955484 169.411365 
L 589.960719 166.224197 
L 599.848524 162.68854 
L 609.660205 158.946274 
" style="fill:none;stroke:#ffd700;stroke-linecap:square;stroke-width:2;"/>
   </g>
   <g id="line2d_48">
    <path clip-path="url(#p59cdb7b103)" d="M 559.506913 174.144069 
L 569.806083 172.102605 
L 579.935195 169.338265 
L 589.843578 165.864877 
L 599.481666 161.699815 
L 608.801246 156.863917 
" style="fill:none;stroke:#ffd700;stroke-linecap:square;stroke-width:2;"/>
   </g>
   <g id="line2d_49">
    <path clip-path="url(#p59cdb7b103)" d="M 453.384909 178.569011 
L 462.563463 183.667503 
L 471.400388 189.338646 
L 479.94815 195.437706 
L 488.277369 201.832524 
L 496.470827 208.400695 
" style="fill:none;stroke:#ffd700;stroke-linecap:square;stroke-width:2;"/>
   </g>
   <g id="line2d_50">
    <path clip-path="url(#p59cdb7b103)" d="M 453.384909 178.569011 
L 462.563463 183.667503 
L 471.35868 189.402016 
L 479.726563 195.743863 
L 487.62525 202.66132 
L 495.015231 210.119783 
" style="fill:none;stroke:#ffd700;stroke-linecap:square;stroke-width:2;"/>
   </g>
   <g id="line2d_51">
    <path clip-path="url(#p59cdb7b103)" d="M 609.660205 158.946274 
L 619.445577 155.135572 
L 629.23095 151.32487 
L 639.016323 147.514168 
L 648.801695 143.703466 
L 658.587068 139.892764 
" style="fill:none;stroke:#ffd700;stroke-linecap:square;stroke-width:2;"/>
   </g>
   <g id="line2d_52">
    <path clip-path="url(#p59cdb7b103)" d="M 609.660205 158.946274 
L 619.445577 155.135572 
L 629.23095 151.32487 
L 639.016323 147.514168 
L 648.801695 143.703466 
L 658.587068 139.892764 
" style="fill:none;stroke:#008000;stroke-linecap:square;stroke-width:3;"/>
   </g>
   <g id="line2d_53">
    <path clip-path="url(#p59cdb7b103)" d="M 301.362092 145.099921 
" style="fill:none;stroke:#008000;stroke-linecap:square;stroke-width:3;"/>
   </g>
   <g id="line2d_54">
    <path clip-path="url(#p59cdb7b103)" d="M 301.362092 145.099921 
L 311.863281 144.889897 
L 322.365617 144.753198 
L 332.868316 144.836729 
L 343.361327 145.287948 
L 353.819001 146.254518 
" style="fill:none;stroke:#008000;stroke-linecap:square;stroke-width:3;"/>
   </g>
   <g id="line2d_55">
    <path clip-path="url(#p59cdb7b103)" d="M 353.819001 146.254518 
L 364.19157 147.882492 
L 374.440473 150.165712 
L 384.565158 152.950227 
L 394.586443 156.08765 
L 404.539926 159.434559 
" style="fill:none;stroke:#008000;stroke-linecap:square;stroke-width:3;"/>
   </g>
   <g id="line2d_56">
    <path clip-path="url(#p59cdb7b103)" d="M 404.539926 159.434559 
L 414.469859 162.850903 
L 424.423341 166.197812 
L 434.444626 169.335235 
L 444.569311 172.11975 
L 454.818214 174.40297 
" style="fill:none;stroke:#008000;stroke-linecap:square;stroke-width:3;"/>
   </g>
   <g id="line2d_57">
    <path clip-path="url(#p59cdb7b103)" d="M 454.818214 174.40297 
L 465.190783 176.030944 
L 475.646369 176.997293 
L 486.137283 177.448394 
L 496.637883 177.53188 
L 507.138118 177.39518 
" style="fill:none;stroke:#008000;stroke-linecap:square;stroke-width:3;"/>
   </g>
   <g id="line2d_58">
    <path clip-path="url(#p59cdb7b103)" d="M 507.138118 177.39518 
L 517.639307 177.185157 
L 528.13871 176.901821 
L 538.629671 176.398417 
L 549.096249 175.528006 
L 559.506913 174.144069 
" style="fill:none;stroke:#008000;stroke-linecap:square;stroke-width:3;"/>
   </g>
   <g id="line2d_59">
    <path clip-path="url(#p59cdb7b103)" d="M 559.506913 174.144069 
L 569.806083 172.102605 
L 579.955484 169.411365 
L 589.960719 166.224197 
L 599.848524 162.68854 
L 609.660205 158.946274 
" style="fill:none;stroke:#008000;stroke-linecap:square;stroke-width:3;"/>
   </g>
   <g id="line2d_60">
    <path clip-path="url(#p59cdb7b103)" d="M 609.660205 158.946274 
L 619.445577 155.135572 
L 629.23095 151.32487 
L 639.016323 147.514168 
L 648.801695 143.703466 
L 658.587068 139.892764 
" style="fill:none;stroke:#008000;stroke-linecap:square;stroke-width:3;"/>
   </g>
   <g id="line2d_61">
    <path clip-path="url(#p59cdb7b103)" d="M 301.362092 145.099921 
" style="fill:none;stroke:#ffd700;stroke-linecap:square;stroke-width:1.5;"/>
    <defs>
     <path d="M 0 4 
C 1.060812 4 2.078319 3.578535 2.828427 2.828427 
C 3.578535 2.078319 4 1.060812 4 0 
C 4 -1.060812 3.578535 -2.078319 2.828427 -2.828427 
C 2.078319 -3.578535 1.060812 -4 0 -4 
C -1.060812 -4 -2.078319 -3.578535 -2.828427 -2.828427 
C -3.578535 -2.078319 -4 -1.060812 -4 0 
C -4 1.060812 -3.578535 2.078319 -2.828427 2.828427 
C -2.078319 3.578535 -1.060812 4 0 4 
z
" id="m3b0021b4c9" style="stroke:#ffd700;"/>
    </defs>
    <g clip-path="url(#p59cdb7b103)">
     <use style="fill:#ffd700;stroke:#ffd700;" x="301.362092" xlink:href="#m3b0021b4c9" y="145.099921"/>
    </g>
   </g>
   <g id="line2d_62">
    <path clip-path="url(#p59cdb7b103)" d="M 353.868037 144.049802 
" style="fill:none;stroke:#ffd700;stroke-linecap:square;stroke-width:1.5;"/>
    <g clip-path="url(#p59cdb7b103)">
     <use style="fill:#ffd700;stroke:#ffd700;" x="353.868037" xlink:href="#m3b0021b4c9" y="144.049802"/>
    </g>
   </g>
   <g id="line2d_63">
    <path clip-path="url(#p59cdb7b103)" d="M 353.730887 141.84881 
" style="fill:none;stroke:#ffd700;stroke-linecap:square;stroke-width:1.5;"/>
    <g clip-path="url(#p59cdb7b103)">
     <use style="fill:#ffd700;stroke:#ffd700;" x="353.730887" xlink:href="#m3b0021b4c9" y="141.84881"/>
    </g>
   </g>
   <g id="line2d_64">
    <path clip-path="url(#p59cdb7b103)" d="M 353.819001 146.254518 
" style="fill:none;stroke:#ffd700;stroke-linecap:square;stroke-width:1.5;"/>
    <g clip-path="url(#p59cdb7b103)">
     <use style="fill:#ffd700;stroke:#ffd700;" x="353.819001" xlink:href="#m3b0021b4c9" y="146.254518"/>
    </g>
   </g>
   <g id="line2d_65">
    <path clip-path="url(#p59cdb7b103)" d="M 406.373982 142.999683 
" style="fill:none;stroke:#ffd700;stroke-linecap:square;stroke-width:1.5;"/>
    <g clip-path="url(#p59cdb7b103)">
     <use style="fill:#ffd700;stroke:#ffd700;" x="406.373982" xlink:href="#m3b0021b4c9" y="142.999683"/>
    </g>
   </g>
   <g id="line2d_66">
    <path clip-path="url(#p59cdb7b103)" d="M 406.236832 140.798691 
" style="fill:none;stroke:#ffd700;stroke-linecap:square;stroke-width:1.5;"/>
    <g clip-path="url(#p59cdb7b103)">
     <use style="fill:#ffd700;stroke:#ffd700;" x="406.236832" xlink:href="#m3b0021b4c9" y="140.798691"/>
    </g>
   </g>
   <g id="line2d_67">
    <path clip-path="url(#p59cdb7b103)" d="M 406.324946 145.204399 
" style="fill:none;stroke:#ffd700;stroke-linecap:square;stroke-width:1.5;"/>
    <g clip-path="url(#p59cdb7b103)">
     <use style="fill:#ffd700;stroke:#ffd700;" x="406.324946" xlink:href="#m3b0021b4c9" y="145.204399"/>
    </g>
   </g>
   <g id="line2d_68">
    <path clip-path="url(#p59cdb7b103)" d="M 458.879926 141.949564 
" style="fill:none;stroke:#ffd700;stroke-linecap:square;stroke-width:1.5;"/>
    <g clip-path="url(#p59cdb7b103)">
     <use style="fill:#ffd700;stroke:#ffd700;" x="458.879926" xlink:href="#m3b0021b4c9" y="141.949564"/>
    </g>
   </g>
   <g id="line2d_69">
    <path clip-path="url(#p59cdb7b103)" d="M 458.742776 139.748572 
" style="fill:none;stroke:#ffd700;stroke-linecap:square;stroke-width:1.5;"/>
    <g clip-path="url(#p59cdb7b103)">
     <use style="fill:#ffd700;stroke:#ffd700;" x="458.742776" xlink:href="#m3b0021b4c9" y="139.748572"/>
    </g>
   </g>
   <g id="line2d_70">
    <path clip-path="url(#p59cdb7b103)" d="M 458.830891 144.15428 
" style="fill:none;stroke:#ffd700;stroke-linecap:square;stroke-width:1.5;"/>
    <g clip-path="url(#p59cdb7b103)">
     <use style="fill:#ffd700;stroke:#ffd700;" x="458.830891" xlink:href="#m3b0021b4c9" y="144.15428"/>
    </g>
   </g>
   <g id="line2d_71">
    <path clip-path="url(#p59cdb7b103)" d="M 404.539926 159.434559 
" style="fill:none;stroke:#ffd700;stroke-linecap:square;stroke-width:1.5;"/>
    <g clip-path="url(#p59cdb7b103)">
     <use style="fill:#ffd700;stroke:#ffd700;" x="404.539926" xlink:href="#m3b0021b4c9" y="159.434559"/>
    </g>
   </g>
   <g id="line2d_72">
    <path clip-path="url(#p59cdb7b103)" d="M 403.764926 161.5496 
" style="fill:none;stroke:#ffd700;stroke-linecap:square;stroke-width:1.5;"/>
    <g clip-path="url(#p59cdb7b103)">
     <use style="fill:#ffd700;stroke:#ffd700;" x="403.764926" xlink:href="#m3b0021b4c9" y="161.5496"/>
    </g>
   </g>
   <g id="line2d_73">
    <path clip-path="url(#p59cdb7b103)" d="M 457.04587 158.38444 
" style="fill:none;stroke:#ffd700;stroke-linecap:square;stroke-width:1.5;"/>
    <g clip-path="url(#p59cdb7b103)">
     <use style="fill:#ffd700;stroke:#ffd700;" x="457.04587" xlink:href="#m3b0021b4c9" y="158.38444"/>
    </g>
   </g>
   <g id="line2d_74">
    <path clip-path="url(#p59cdb7b103)" d="M 456.27087 160.499482 
" style="fill:none;stroke:#ffd700;stroke-linecap:square;stroke-width:1.5;"/>
    <g clip-path="url(#p59cdb7b103)">
     <use style="fill:#ffd700;stroke:#ffd700;" x="456.27087" xlink:href="#m3b0021b4c9" y="160.499482"/>
    </g>
   </g>
   <g id="line2d_75">
    <path clip-path="url(#p59cdb7b103)" d="M 403.884179 126.651015 
" style="fill:none;stroke:#ffd700;stroke-linecap:square;stroke-width:1.5;"/>
    <g clip-path="url(#p59cdb7b103)">
     <use style="fill:#ffd700;stroke:#ffd700;" x="403.884179" xlink:href="#m3b0021b4c9" y="126.651015"/>
    </g>
   </g>
   <g id="line2d_76">
    <path clip-path="url(#p59cdb7b103)" d="M 403.02522 124.568657 
" style="fill:none;stroke:#ffd700;stroke-linecap:square;stroke-width:1.5;"/>
    <g clip-path="url(#p59cdb7b103)">
     <use style="fill:#ffd700;stroke:#ffd700;" x="403.02522" xlink:href="#m3b0021b4c9" y="124.568657"/>
    </g>
   </g>
   <g id="line2d_77">
    <path clip-path="url(#p59cdb7b103)" d="M 456.390124 125.600896 
" style="fill:none;stroke:#ffd700;stroke-linecap:square;stroke-width:1.5;"/>
    <g clip-path="url(#p59cdb7b103)">
     <use style="fill:#ffd700;stroke:#ffd700;" x="456.390124" xlink:href="#m3b0021b4c9" y="125.600896"/>
    </g>
   </g>
   <g id="line2d_78">
    <path clip-path="url(#p59cdb7b103)" d="M 455.531164 123.518538 
" style="fill:none;stroke:#ffd700;stroke-linecap:square;stroke-width:1.5;"/>
    <g clip-path="url(#p59cdb7b103)">
     <use style="fill:#ffd700;stroke:#ffd700;" x="455.531164" xlink:href="#m3b0021b4c9" y="123.518538"/>
    </g>
   </g>
   <g id="line2d_79">
    <path clip-path="url(#p59cdb7b103)" d="M 454.18959 176.516277 
" style="fill:none;stroke:#ffd700;stroke-linecap:square;stroke-width:1.5;"/>
    <g clip-path="url(#p59cdb7b103)">
     <use style="fill:#ffd700;stroke:#ffd700;" x="454.18959" xlink:href="#m3b0021b4c9" y="176.516277"/>
    </g>
   </g>
   <g id="line2d_80">
    <path clip-path="url(#p59cdb7b103)" d="M 454.818214 174.40297 
" style="fill:none;stroke:#ffd700;stroke-linecap:square;stroke-width:1.5;"/>
    <g clip-path="url(#p59cdb7b103)">
     <use style="fill:#ffd700;stroke:#ffd700;" x="454.818214" xlink:href="#m3b0021b4c9" y="174.40297"/>
    </g>
   </g>
   <g id="line2d_81">
    <path clip-path="url(#p59cdb7b103)" d="M 453.384909 178.569011 
" style="fill:none;stroke:#ffd700;stroke-linecap:square;stroke-width:1.5;"/>
    <g clip-path="url(#p59cdb7b103)">
     <use style="fill:#ffd700;stroke:#ffd700;" x="453.384909" xlink:href="#m3b0021b4c9" y="178.569011"/>
    </g>
   </g>
   <g id="line2d_82">
    <path clip-path="url(#p59cdb7b103)" d="M 446.780524 191.482592 
" style="fill:none;stroke:#ffd700;stroke-linecap:square;stroke-width:1.5;"/>
    <g clip-path="url(#p59cdb7b103)">
     <use style="fill:#ffd700;stroke:#ffd700;" x="446.780524" xlink:href="#m3b0021b4c9" y="191.482592"/>
    </g>
   </g>
   <g id="line2d_83">
    <path clip-path="url(#p59cdb7b103)" d="M 445.320887 193.19825 
" style="fill:none;stroke:#ffd700;stroke-linecap:square;stroke-width:1.5;"/>
    <g clip-path="url(#p59cdb7b103)">
     <use style="fill:#ffd700;stroke:#ffd700;" x="445.320887" xlink:href="#m3b0021b4c9" y="193.19825"/>
    </g>
   </g>
   <g id="line2d_84">
    <path clip-path="url(#p59cdb7b103)" d="M 452.811042 107.597504 
" style="fill:none;stroke:#ffd700;stroke-linecap:square;stroke-width:1.5;"/>
    <g clip-path="url(#p59cdb7b103)">
     <use style="fill:#ffd700;stroke:#ffd700;" x="452.811042" xlink:href="#m3b0021b4c9" y="107.597504"/>
    </g>
   </g>
   <g id="line2d_85">
    <path clip-path="url(#p59cdb7b103)" d="M 451.924917 105.57859 
" style="fill:none;stroke:#ffd700;stroke-linecap:square;stroke-width:1.5;"/>
    <g clip-path="url(#p59cdb7b103)">
     <use style="fill:#ffd700;stroke:#ffd700;" x="451.924917" xlink:href="#m3b0021b4c9" y="105.57859"/>
    </g>
   </g>
   <g id="line2d_86">
    <path clip-path="url(#p59cdb7b103)" d="M 453.523674 109.683982 
" style="fill:none;stroke:#ffd700;stroke-linecap:square;stroke-width:1.5;"/>
    <g clip-path="url(#p59cdb7b103)">
     <use style="fill:#ffd700;stroke:#ffd700;" x="453.523674" xlink:href="#m3b0021b4c9" y="109.683982"/>
    </g>
   </g>
   <g id="line2d_87">
    <path clip-path="url(#p59cdb7b103)" d="M 505.316987 106.547385 
" style="fill:none;stroke:#ffd700;stroke-linecap:square;stroke-width:1.5;"/>
    <g clip-path="url(#p59cdb7b103)">
     <use style="fill:#ffd700;stroke:#ffd700;" x="505.316987" xlink:href="#m3b0021b4c9" y="106.547385"/>
    </g>
   </g>
   <g id="line2d_88">
    <path clip-path="url(#p59cdb7b103)" d="M 504.430862 104.528471 
" style="fill:none;stroke:#ffd700;stroke-linecap:square;stroke-width:1.5;"/>
    <g clip-path="url(#p59cdb7b103)">
     <use style="fill:#ffd700;stroke:#ffd700;" x="504.430862" xlink:href="#m3b0021b4c9" y="104.528471"/>
    </g>
   </g>
   <g id="line2d_89">
    <path clip-path="url(#p59cdb7b103)" d="M 506.029618 108.633863 
" style="fill:none;stroke:#ffd700;stroke-linecap:square;stroke-width:1.5;"/>
    <g clip-path="url(#p59cdb7b103)">
     <use style="fill:#ffd700;stroke:#ffd700;" x="506.029618" xlink:href="#m3b0021b4c9" y="108.633863"/>
    </g>
   </g>
   <g id="line2d_90">
    <path clip-path="url(#p59cdb7b103)" d="M 444.80941 92.939444 
" style="fill:none;stroke:#ffd700;stroke-linecap:square;stroke-width:1.5;"/>
    <g clip-path="url(#p59cdb7b103)">
     <use style="fill:#ffd700;stroke:#ffd700;" x="444.80941" xlink:href="#m3b0021b4c9" y="92.939444"/>
    </g>
   </g>
   <g id="line2d_91">
    <path clip-path="url(#p59cdb7b103)" d="M 443.282332 91.283528 
" style="fill:none;stroke:#ffd700;stroke-linecap:square;stroke-width:1.5;"/>
    <g clip-path="url(#p59cdb7b103)">
     <use style="fill:#ffd700;stroke:#ffd700;" x="443.282332" xlink:href="#m3b0021b4c9" y="91.283528"/>
    </g>
   </g>
   <g id="line2d_92">
    <path clip-path="url(#p59cdb7b103)" d="M 497.315355 91.889325 
" style="fill:none;stroke:#ffd700;stroke-linecap:square;stroke-width:1.5;"/>
    <g clip-path="url(#p59cdb7b103)">
     <use style="fill:#ffd700;stroke:#ffd700;" x="497.315355" xlink:href="#m3b0021b4c9" y="91.889325"/>
    </g>
   </g>
   <g id="line2d_93">
    <path clip-path="url(#p59cdb7b103)" d="M 495.788277 90.233409 
" style="fill:none;stroke:#ffd700;stroke-linecap:square;stroke-width:1.5;"/>
    <g clip-path="url(#p59cdb7b103)">
     <use style="fill:#ffd700;stroke:#ffd700;" x="495.788277" xlink:href="#m3b0021b4c9" y="90.233409"/>
    </g>
   </g>
   <g id="line2d_94">
    <path clip-path="url(#p59cdb7b103)" d="M 507.138118 177.39518 
" style="fill:none;stroke:#ffd700;stroke-linecap:square;stroke-width:1.5;"/>
    <g clip-path="url(#p59cdb7b103)">
     <use style="fill:#ffd700;stroke:#ffd700;" x="507.138118" xlink:href="#m3b0021b4c9" y="177.39518"/>
    </g>
   </g>
   <g id="line2d_95">
    <path clip-path="url(#p59cdb7b103)" d="M 507.048332 175.144411 
" style="fill:none;stroke:#ffd700;stroke-linecap:square;stroke-width:1.5;"/>
    <g clip-path="url(#p59cdb7b103)">
     <use style="fill:#ffd700;stroke:#ffd700;" x="507.048332" xlink:href="#m3b0021b4c9" y="175.144411"/>
    </g>
   </g>
   <g id="line2d_96">
    <path clip-path="url(#p59cdb7b103)" d="M 503.839254 193.597994 
" style="fill:none;stroke:#ffd700;stroke-linecap:square;stroke-width:1.5;"/>
    <g clip-path="url(#p59cdb7b103)">
     <use style="fill:#ffd700;stroke:#ffd700;" x="503.839254" xlink:href="#m3b0021b4c9" y="193.597994"/>
    </g>
   </g>
   <g id="line2d_97">
    <path clip-path="url(#p59cdb7b103)" d="M 504.467878 191.484688 
" style="fill:none;stroke:#ffd700;stroke-linecap:square;stroke-width:1.5;"/>
    <g clip-path="url(#p59cdb7b103)">
     <use style="fill:#ffd700;stroke:#ffd700;" x="504.467878" xlink:href="#m3b0021b4c9" y="191.484688"/>
    </g>
   </g>
   <g id="line2d_98">
    <path clip-path="url(#p59cdb7b103)" d="M 503.034573 195.650729 
" style="fill:none;stroke:#ffd700;stroke-linecap:square;stroke-width:1.5;"/>
    <g clip-path="url(#p59cdb7b103)">
     <use style="fill:#ffd700;stroke:#ffd700;" x="503.034573" xlink:href="#m3b0021b4c9" y="195.650729"/>
    </g>
   </g>
   <g id="line2d_99">
    <path clip-path="url(#p59cdb7b103)" d="M 557.165721 159.828637 
" style="fill:none;stroke:#ffd700;stroke-linecap:square;stroke-width:1.5;"/>
    <g clip-path="url(#p59cdb7b103)">
     <use style="fill:#ffd700;stroke:#ffd700;" x="557.165721" xlink:href="#m3b0021b4c9" y="159.828637"/>
    </g>
   </g>
   <g id="line2d_100">
    <path clip-path="url(#p59cdb7b103)" d="M 556.301864 157.748306 
" style="fill:none;stroke:#ffd700;stroke-linecap:square;stroke-width:1.5;"/>
    <g clip-path="url(#p59cdb7b103)">
     <use style="fill:#ffd700;stroke:#ffd700;" x="556.301864" xlink:href="#m3b0021b4c9" y="157.748306"/>
    </g>
   </g>
   <g id="line2d_101">
    <path clip-path="url(#p59cdb7b103)" d="M 559.644063 176.345061 
" style="fill:none;stroke:#ffd700;stroke-linecap:square;stroke-width:1.5;"/>
    <g clip-path="url(#p59cdb7b103)">
     <use style="fill:#ffd700;stroke:#ffd700;" x="559.644063" xlink:href="#m3b0021b4c9" y="176.345061"/>
    </g>
   </g>
   <g id="line2d_102">
    <path clip-path="url(#p59cdb7b103)" d="M 559.506913 174.144069 
" style="fill:none;stroke:#ffd700;stroke-linecap:square;stroke-width:1.5;"/>
    <g clip-path="url(#p59cdb7b103)">
     <use style="fill:#ffd700;stroke:#ffd700;" x="559.506913" xlink:href="#m3b0021b4c9" y="174.144069"/>
    </g>
   </g>
   <g id="line2d_103">
    <path clip-path="url(#p59cdb7b103)" d="M 559.595027 178.549777 
" style="fill:none;stroke:#ffd700;stroke-linecap:square;stroke-width:1.5;"/>
    <g clip-path="url(#p59cdb7b103)">
     <use style="fill:#ffd700;stroke:#ffd700;" x="559.595027" xlink:href="#m3b0021b4c9" y="178.549777"/>
    </g>
   </g>
   <g id="line2d_104">
    <path clip-path="url(#p59cdb7b103)" d="M 606.047612 140.660043 
" style="fill:none;stroke:#ffd700;stroke-linecap:square;stroke-width:1.5;"/>
    <g clip-path="url(#p59cdb7b103)">
     <use style="fill:#ffd700;stroke:#ffd700;" x="606.047612" xlink:href="#m3b0021b4c9" y="140.660043"/>
    </g>
   </g>
   <g id="line2d_105">
    <path clip-path="url(#p59cdb7b103)" d="M 605.156738 138.64322 
" style="fill:none;stroke:#ffd700;stroke-linecap:square;stroke-width:1.5;"/>
    <g clip-path="url(#p59cdb7b103)">
     <use style="fill:#ffd700;stroke:#ffd700;" x="605.156738" xlink:href="#m3b0021b4c9" y="138.64322"/>
    </g>
   </g>
   <g id="line2d_106">
    <path clip-path="url(#p59cdb7b103)" d="M 606.765151 142.744838 
" style="fill:none;stroke:#ffd700;stroke-linecap:square;stroke-width:1.5;"/>
    <g clip-path="url(#p59cdb7b103)">
     <use style="fill:#ffd700;stroke:#ffd700;" x="606.765151" xlink:href="#m3b0021b4c9" y="142.744838"/>
    </g>
   </g>
   <g id="line2d_107">
    <path clip-path="url(#p59cdb7b103)" d="M 609.660205 158.946274 
" style="fill:none;stroke:#ffd700;stroke-linecap:square;stroke-width:1.5;"/>
    <g clip-path="url(#p59cdb7b103)">
     <use style="fill:#ffd700;stroke:#ffd700;" x="609.660205" xlink:href="#m3b0021b4c9" y="158.946274"/>
    </g>
   </g>
   <g id="line2d_108">
    <path clip-path="url(#p59cdb7b103)" d="M 608.801246 156.863917 
" style="fill:none;stroke:#ffd700;stroke-linecap:square;stroke-width:1.5;"/>
    <g clip-path="url(#p59cdb7b103)">
     <use style="fill:#ffd700;stroke:#ffd700;" x="608.801246" xlink:href="#m3b0021b4c9" y="156.863917"/>
    </g>
   </g>
   <g id="line2d_109">
    <path clip-path="url(#p59cdb7b103)" d="M 496.470827 208.400695 
" style="fill:none;stroke:#ffd700;stroke-linecap:square;stroke-width:1.5;"/>
    <g clip-path="url(#p59cdb7b103)">
     <use style="fill:#ffd700;stroke:#ffd700;" x="496.470827" xlink:href="#m3b0021b4c9" y="208.400695"/>
    </g>
   </g>
   <g id="line2d_110">
    <path clip-path="url(#p59cdb7b103)" d="M 495.015231 210.119783 
" style="fill:none;stroke:#ffd700;stroke-linecap:square;stroke-width:1.5;"/>
    <g clip-path="url(#p59cdb7b103)">
     <use style="fill:#ffd700;stroke:#ffd700;" x="495.015231" xlink:href="#m3b0021b4c9" y="210.119783"/>
    </g>
   </g>
   <g id="line2d_111">
    <path clip-path="url(#p59cdb7b103)" d="M 658.587068 139.892764 
" style="fill:none;stroke:#ffd700;stroke-linecap:square;stroke-width:1.5;"/>
    <g clip-path="url(#p59cdb7b103)">
     <use style="fill:#ffd700;stroke:#ffd700;" x="658.587068" xlink:href="#m3b0021b4c9" y="139.892764"/>
    </g>
   </g>
   <g id="line2d_112">
    <path clip-path="url(#p59cdb7b103)" d="M 658.587068 139.892764 
" style="fill:none;stroke:#008000;stroke-linecap:square;stroke-width:1.5;"/>
    <defs>
     <path d="M 0 4 
C 1.060812 4 2.078319 3.578535 2.828427 2.828427 
C 3.578535 2.078319 4 1.060812 4 0 
C 4 -1.060812 3.578535 -2.078319 2.828427 -2.828427 
C 2.078319 -3.578535 1.060812 -4 0 -4 
C -1.060812 -4 -2.078319 -3.578535 -2.828427 -2.828427 
C -3.578535 -2.078319 -4 -1.060812 -4 0 
C -4 1.060812 -3.578535 2.078319 -2.828427 2.828427 
C -2.078319 3.578535 -1.060812 4 0 4 
z
" id="m207115f4b9" style="stroke:#008000;"/>
    </defs>
    <g clip-path="url(#p59cdb7b103)">
     <use style="fill:#008000;stroke:#008000;" x="658.587068" xlink:href="#m207115f4b9" y="139.892764"/>
    </g>
   </g>
   <g id="line2d_113">
    <path clip-path="url(#p59cdb7b103)" d="M 301.362092 145.099921 
" style="fill:none;stroke:#008000;stroke-linecap:square;stroke-width:1.5;"/>
    <g clip-path="url(#p59cdb7b103)">
     <use style="fill:#008000;stroke:#008000;" x="301.362092" xlink:href="#m207115f4b9" y="145.099921"/>
    </g>
   </g>
   <g id="line2d_114">
    <path clip-path="url(#p59cdb7b103)" d="M 353.819001 146.254518 
" style="fill:none;stroke:#008000;stroke-linecap:square;stroke-width:1.5;"/>
    <g clip-path="url(#p59cdb7b103)">
     <use style="fill:#008000;stroke:#008000;" x="353.819001" xlink:href="#m207115f4b9" y="146.254518"/>
    </g>
   </g>
   <g id="line2d_115">
    <path clip-path="url(#p59cdb7b103)" d="M 404.539926 159.434559 
" style="fill:none;stroke:#008000;stroke-linecap:square;stroke-width:1.5;"/>
    <g clip-path="url(#p59cdb7b103)">
     <use style="fill:#008000;stroke:#008000;" x="404.539926" xlink:href="#m207115f4b9" y="159.434559"/>
    </g>
   </g>
   <g id="line2d_116">
    <path clip-path="url(#p59cdb7b103)" d="M 454.818214 174.40297 
" style="fill:none;stroke:#008000;stroke-linecap:square;stroke-width:1.5;"/>
    <g clip-path="url(#p59cdb7b103)">
     <use style="fill:#008000;stroke:#008000;" x="454.818214" xlink:href="#m207115f4b9" y="174.40297"/>
    </g>
   </g>
   <g id="line2d_117">
    <path clip-path="url(#p59cdb7b103)" d="M 507.138118 177.39518 
" style="fill:none;stroke:#008000;stroke-linecap:square;stroke-width:1.5;"/>
    <g clip-path="url(#p59cdb7b103)">
     <use style="fill:#008000;stroke:#008000;" x="507.138118" xlink:href="#m207115f4b9" y="177.39518"/>
    </g>
   </g>
   <g id="line2d_118">
    <path clip-path="url(#p59cdb7b103)" d="M 559.506913 174.144069 
" style="fill:none;stroke:#008000;stroke-linecap:square;stroke-width:1.5;"/>
    <g clip-path="url(#p59cdb7b103)">
     <use style="fill:#008000;stroke:#008000;" x="559.506913" xlink:href="#m207115f4b9" y="174.144069"/>
    </g>
   </g>
   <g id="line2d_119">
    <path clip-path="url(#p59cdb7b103)" d="M 609.660205 158.946274 
" style="fill:none;stroke:#008000;stroke-linecap:square;stroke-width:1.5;"/>
    <g clip-path="url(#p59cdb7b103)">
     <use style="fill:#008000;stroke:#008000;" x="609.660205" xlink:href="#m207115f4b9" y="158.946274"/>
    </g>
   </g>
   <g id="line2d_120">
    <path clip-path="url(#p59cdb7b103)" d="M 658.587068 139.892764 
" style="fill:none;stroke:#008000;stroke-linecap:square;stroke-width:1.5;"/>
    <g clip-path="url(#p59cdb7b103)">
     <use style="fill:#008000;stroke:#008000;" x="658.587068" xlink:href="#m207115f4b9" y="139.892764"/>
    </g>
   </g>
  </g>
 </g>
 <defs>
  <clipPath id="p59cdb7b103">
   <rect height="277.2" width="763.344" x="7.2" y="7.2"/>
  </clipPath>
 </defs>
</svg>
